<?xml version="1.0" encoding="UTF-8"?><svg version="1.1" width="983px" height="658px" viewBox="0 0 983.0 658.0" xmlns="http://www.w3.org/2000/svg" xmlns:xlink="http://www.w3.org/1999/xlink"><defs><clipPath id="i0"><path d="M981,0 L981,658 L0,658 L0,0 L981,0 Z"></path></clipPath><clipPath id="i1"><path d="M981,0 L981,51 L0,51 L0,0 L981,0 Z"></path></clipPath><clipPath id="i2"><path d="M981,0 L981,658 L0,658 L981,0 Z"></path></clipPath><clipPath id="i3"><path d=""></path></clipPath><clipPath id="i4"><path d="M490.5,0 L490.5,329 L0,329 L0,0 L490.5,0 Z M490.5,0 L981,0 L981,329 L490.5,0 Z"></path></clipPath><clipPath id="i5"><path d="M387,0 L387,274.40835 L0,274.40835 L0,0 L387,0 Z"></path></clipPath><clipPath id="i6"><path d="M25.4347408,12.7583578 L33.6989891,38.2750734 L17.1704926,38.2750734 L25.4347408,12.7583578 Z"></path></clipPath><clipPath id="i7"><path d="M25.4347408,12.7583578 L33.6989891,38.2750734 L17.1704926,38.2750734 L25.4347408,12.7583578 Z"></path></clipPath><clipPath id="i8"><path d="M25.4347408,12.7583578 L33.6989891,38.2750734 L17.1704926,38.2750734 L25.4347408,12.7583578 Z"></path></clipPath><clipPath id="i9"><path d="M25.4347408,12.7583578 L33.6989891,38.2750734 L17.1704926,38.2750734 L25.4347408,12.7583578 Z"></path></clipPath><clipPath id="i10"><path d="M25.4347408,12.7583578 L33.6989891,38.2750734 L17.1704926,38.2750734 L25.4347408,12.7583578 Z"></path></clipPath><clipPath id="i11"><path d="M25.4347408,12.7583578 L33.6989891,38.2750734 L17.1704926,38.2750734 L25.4347408,12.7583578 Z"></path></clipPath><clipPath id="i12"><path d="M25.4347408,12.7583578 L33.6989891,38.2750734 L17.1704926,38.2750734 L25.4347408,12.7583578 Z"></path></clipPath><clipPath id="i13"><path d="M25.4347408,12.7583578 L33.6989891,38.2750734 L17.1704926,38.2750734 L25.4347408,12.7583578 Z"></path></clipPath><clipPath id="i14"><path d="M25.4347408,12.7583578 L33.6989891,38.2750734 L17.1704926,38.2750734 L25.4347408,12.7583578 Z"></path></clipPath><clipPath id="i15"><path d="M25.4347408,12.7583578 L33.6989891,38.2750734 L17.1704926,38.2750734 L25.4347408,12.7583578 Z"></path></clipPath><clipPath id="i16"><path d="M25.4347408,12.7583578 L33.6989891,38.2750734 L17.1704926,38.2750734 L25.4347408,12.7583578 Z"></path></clipPath><clipPath id="i17"><path d="M25.4347408,12.7583578 L33.6989891,38.2750734 L17.1704926,38.2750734 L25.4347408,12.7583578 Z"></path></clipPath><clipPath id="i18"><path d="M25.4347408,12.7583578 L33.6989891,38.2750734 L17.1704926,38.2750734 L25.4347408,12.7583578 Z"></path></clipPath><clipPath id="i19"><path d="M25.4347408,12.7583578 L33.6989891,38.2750734 L17.1704926,38.2750734 L25.4347408,12.7583578 Z"></path></clipPath><clipPath id="i20"><path d="M25.4347408,12.7583578 L33.6989891,38.2750734 L17.1704926,38.2750734 L25.4347408,12.7583578 Z"></path></clipPath><clipPath id="i21"><path d="M25.4347408,12.7583578 L33.6989891,38.2750734 L17.1704926,38.2750734 L25.4347408,12.7583578 Z"></path></clipPath><clipPath id="i22"><path d="M25.4347408,12.7583578 L33.6989891,38.2750734 L17.1704926,38.2750734 L25.4347408,12.7583578 Z"></path></clipPath><clipPath id="i23"><path d="M25.4347408,12.7583578 L33.6989891,38.2750734 L17.1704926,38.2750734 L25.4347408,12.7583578 Z"></path></clipPath><clipPath id="i24"><path d="M25.4347408,12.7583578 L33.6989891,38.2750734 L17.1704926,38.2750734 L25.4347408,12.7583578 Z"></path></clipPath><clipPath id="i25"><path d="M25.4347408,12.7583578 L33.6989891,38.2750734 L17.1704926,38.2750734 L25.4347408,12.7583578 Z"></path></clipPath><clipPath id="i26"><path d="M25.4347408,12.7583578 L33.6989891,38.2750734 L17.1704926,38.2750734 L25.4347408,12.7583578 Z"></path></clipPath><clipPath id="i27"><path d="M25.4347408,12.7583578 L33.6989891,38.2750734 L17.1704926,38.2750734 L25.4347408,12.7583578 Z"></path></clipPath><clipPath id="i28"><path d="M25.4347408,12.7583578 L33.6989891,38.2750734 L17.1704926,38.2750734 L25.4347408,12.7583578 Z"></path></clipPath><clipPath id="i29"><path d="M25.4347408,12.7583578 L33.6989891,38.2750734 L17.1704926,38.2750734 L25.4347408,12.7583578 Z"></path></clipPath><clipPath id="i30"><path d="M25.4347408,12.7583578 L33.6989891,38.2750734 L17.1704926,38.2750734 L25.4347408,12.7583578 Z"></path></clipPath><clipPath id="i31"><path d="M25.4347408,12.7583578 L33.6989891,38.2750734 L17.1704926,38.2750734 L25.4347408,12.7583578 Z"></path></clipPath><clipPath id="i32"><path d="M25.4347408,12.7583578 L33.6989891,38.2750734 L17.1704926,38.2750734 L25.4347408,12.7583578 Z"></path></clipPath><clipPath id="i33"><path d="M25.4347408,12.7583578 L33.6989891,38.2750734 L17.1704926,38.2750734 L25.4347408,12.7583578 Z"></path></clipPath><clipPath id="i34"><path d="M25.4347408,12.7583578 L33.6989891,38.2750734 L17.1704926,38.2750734 L25.4347408,12.7583578 Z"></path></clipPath><clipPath id="i35"><path d="M25.4347408,12.7583578 L33.6989891,38.2750734 L17.1704926,38.2750734 L25.4347408,12.7583578 Z"></path></clipPath><clipPath id="i36"><path d="M25.4347408,12.7583578 L33.6989891,38.2750734 L17.1704926,38.2750734 L25.4347408,12.7583578 Z"></path></clipPath><clipPath id="i37"><path d="M25.4347408,12.7583578 L33.6989891,38.2750734 L17.1704926,38.2750734 L25.4347408,12.7583578 Z"></path></clipPath><clipPath id="i38"><path d="M25.4347408,12.7583578 L33.6989891,38.2750734 L17.1704926,38.2750734 L25.4347408,12.7583578 Z"></path></clipPath><clipPath id="i39"><path d="M25.4347408,12.7583578 L33.6989891,38.2750734 L17.1704926,38.2750734 L25.4347408,12.7583578 Z"></path></clipPath><clipPath id="i40"><path d="M25.4347408,12.7583578 L33.6989891,38.2750734 L17.1704926,38.2750734 L25.4347408,12.7583578 Z"></path></clipPath><clipPath id="i41"><path d="M25.4347408,12.7583578 L33.6989891,38.2750734 L17.1704926,38.2750734 L25.4347408,12.7583578 Z"></path></clipPath><clipPath id="i42"><path d="M25.4347408,12.7583578 L33.6989891,38.2750734 L17.1704926,38.2750734 L25.4347408,12.7583578 Z"></path></clipPath><clipPath id="i43"><path d="M25.4347408,12.7583578 L33.6989891,38.2750734 L17.1704926,38.2750734 L25.4347408,12.7583578 Z"></path></clipPath><clipPath id="i44"><path d="M25.4347408,12.7583578 L33.6989891,38.2750734 L17.1704926,38.2750734 L25.4347408,12.7583578 Z"></path></clipPath><clipPath id="i45"><path d="M25.4347408,12.7583578 L33.6989891,38.2750734 L17.1704926,38.2750734 L25.4347408,12.7583578 Z"></path></clipPath><clipPath id="i46"><path d="M25.4347408,12.7583578 L33.6989891,38.2750734 L17.1704926,38.2750734 L25.4347408,12.7583578 Z"></path></clipPath><clipPath id="i47"><path d="M25.4347408,12.7583578 L33.6989891,38.2750734 L17.1704926,38.2750734 L25.4347408,12.7583578 Z"></path></clipPath><clipPath id="i48"><path d="M25.4347408,12.7583578 L33.6989891,38.2750734 L17.1704926,38.2750734 L25.4347408,12.7583578 Z"></path></clipPath><clipPath id="i49"><path d="M25.4347408,12.7583578 L33.6989891,38.2750734 L17.1704926,38.2750734 L25.4347408,12.7583578 Z"></path></clipPath><clipPath id="i50"><path d="M25.4347408,12.7583578 L33.6989891,38.2750734 L17.1704926,38.2750734 L25.4347408,12.7583578 Z"></path></clipPath><clipPath id="i51"><path d="M25.4347408,12.7583578 L33.6989891,38.2750734 L17.1704926,38.2750734 L25.4347408,12.7583578 Z"></path></clipPath><clipPath id="i52"><path d="M25.4347408,12.7583578 L33.6989891,38.2750734 L17.1704926,38.2750734 L25.4347408,12.7583578 Z"></path></clipPath><clipPath id="i53"><path d="M25.4347408,12.7583578 L33.6989891,38.2750734 L17.1704926,38.2750734 L25.4347408,12.7583578 Z"></path></clipPath><clipPath id="i54"><path d="M25.4347408,12.7583578 L33.6989891,38.2750734 L17.1704926,38.2750734 L25.4347408,12.7583578 Z"></path></clipPath><clipPath id="i55"><path d="M25.4347408,12.7583578 L33.6989891,38.2750734 L17.1704926,38.2750734 L25.4347408,12.7583578 Z"></path></clipPath><clipPath id="i56"><path d="M25.4347408,12.7583578 L33.6989891,38.2750734 L17.1704926,38.2750734 L25.4347408,12.7583578 Z"></path></clipPath><clipPath id="i57"><path d="M25.4347408,12.7583578 L33.6989891,38.2750734 L17.1704926,38.2750734 L25.4347408,12.7583578 Z"></path></clipPath><clipPath id="i58"><path d="M25.4347408,12.7583578 L33.6989891,38.2750734 L17.1704926,38.2750734 L25.4347408,12.7583578 Z"></path></clipPath><clipPath id="i59"><path d="M25.4347408,12.7583578 L33.6989891,38.2750734 L17.1704926,38.2750734 L25.4347408,12.7583578 Z"></path></clipPath><clipPath id="i60"><path d="M25.4347408,12.7583578 L33.6989891,38.2750734 L17.1704926,38.2750734 L25.4347408,12.7583578 Z"></path></clipPath><clipPath id="i61"><path d="M25.4347408,12.7583578 L33.6989891,38.2750734 L17.1704926,38.2750734 L25.4347408,12.7583578 Z"></path></clipPath><clipPath id="i62"><path d="M25.4347408,12.7583578 L33.6989891,38.2750734 L17.1704926,38.2750734 L25.4347408,12.7583578 Z"></path></clipPath><clipPath id="i63"><path d="M25.4347408,12.7583578 L33.6989891,38.2750734 L17.1704926,38.2750734 L25.4347408,12.7583578 Z"></path></clipPath><clipPath id="i64"><path d="M25.4347408,12.7583578 L33.6989891,38.2750734 L17.1704926,38.2750734 L25.4347408,12.7583578 Z"></path></clipPath><clipPath id="i65"><path d="M25.4347408,12.7583578 L33.6989891,38.2750734 L17.1704926,38.2750734 L25.4347408,12.7583578 Z"></path></clipPath><clipPath id="i66"><path d="M25.4347408,12.7583578 L33.6989891,38.2750734 L17.1704926,38.2750734 L25.4347408,12.7583578 Z"></path></clipPath><clipPath id="i67"><path d="M25.4347408,12.7583578 L33.6989891,38.2750734 L17.1704926,38.2750734 L25.4347408,12.7583578 Z"></path></clipPath><clipPath id="i68"><path d="M25.4347408,12.7583578 L33.6989891,38.2750734 L17.1704926,38.2750734 L25.4347408,12.7583578 Z"></path></clipPath><clipPath id="i69"><path d="M25.4347408,12.7583578 L33.6989891,38.2750734 L17.1704926,38.2750734 L25.4347408,12.7583578 Z"></path></clipPath><clipPath id="i70"><path d="M25.4347408,12.7583578 L33.6989891,38.2750734 L17.1704926,38.2750734 L25.4347408,12.7583578 Z"></path></clipPath><clipPath id="i71"><path d="M25.4347408,12.7583578 L33.6989891,38.2750734 L17.1704926,38.2750734 L25.4347408,12.7583578 Z"></path></clipPath><clipPath id="i72"><path d="M25.4347408,12.7583578 L33.6989891,38.2750734 L17.1704926,38.2750734 L25.4347408,12.7583578 Z"></path></clipPath><clipPath id="i73"><path d="M25.4347408,12.7583578 L33.6989891,38.2750734 L17.1704926,38.2750734 L25.4347408,12.7583578 Z"></path></clipPath><clipPath id="i74"><path d="M25.4347408,12.7583578 L33.6989891,38.2750734 L17.1704926,38.2750734 L25.4347408,12.7583578 Z"></path></clipPath><clipPath id="i75"><path d="M25.4347408,12.7583578 L33.6989891,38.2750734 L17.1704926,38.2750734 L25.4347408,12.7583578 Z"></path></clipPath><clipPath id="i76"><path d="M25.4347408,12.7583578 L33.6989891,38.2750734 L17.1704926,38.2750734 L25.4347408,12.7583578 Z"></path></clipPath><clipPath id="i77"><path d="M25.4347408,12.7583578 L33.6989891,38.2750734 L17.1704926,38.2750734 L25.4347408,12.7583578 Z"></path></clipPath><clipPath id="i78"><path d="M25.4347408,12.7583578 L33.6989891,38.2750734 L17.1704926,38.2750734 L25.4347408,12.7583578 Z"></path></clipPath><clipPath id="i79"><path d="M25.4347408,12.7583578 L33.6989891,38.2750734 L17.1704926,38.2750734 L25.4347408,12.7583578 Z"></path></clipPath><clipPath id="i80"><path d="M25.4347408,12.7583578 L33.6989891,38.2750734 L17.1704926,38.2750734 L25.4347408,12.7583578 Z"></path></clipPath><clipPath id="i81"><path d="M25.4347408,12.7583578 L33.6989891,38.2750734 L17.1704926,38.2750734 L25.4347408,12.7583578 Z"></path></clipPath><clipPath id="i82"><path d="M25.4347408,12.7583578 L33.6989891,38.2750734 L17.1704926,38.2750734 L25.4347408,12.7583578 Z"></path></clipPath><clipPath id="i83"><path d="M25.4347408,12.7583578 L33.6989891,38.2750734 L17.1704926,38.2750734 L25.4347408,12.7583578 Z"></path></clipPath><clipPath id="i84"><path d="M25.4347408,12.7583578 L33.6989891,38.2750734 L17.1704926,38.2750734 L25.4347408,12.7583578 Z"></path></clipPath><clipPath id="i85"><path d="M25.4347408,12.7583578 L33.6989891,38.2750734 L17.1704926,38.2750734 L25.4347408,12.7583578 Z"></path></clipPath><clipPath id="i86"><path d="M25.4347408,12.7583578 L33.6989891,38.2750734 L17.1704926,38.2750734 L25.4347408,12.7583578 Z"></path></clipPath><clipPath id="i87"><path d="M25.4347408,12.7583578 L33.6989891,38.2750734 L17.1704926,38.2750734 L25.4347408,12.7583578 Z"></path></clipPath><clipPath id="i88"><path d="M25.4347408,12.7583578 L33.6989891,38.2750734 L17.1704926,38.2750734 L25.4347408,12.7583578 Z"></path></clipPath><clipPath id="i89"><path d="M25.4347408,12.7583578 L33.6989891,38.2750734 L17.1704926,38.2750734 L25.4347408,12.7583578 Z"></path></clipPath><clipPath id="i90"><path d="M25.4347408,12.7583578 L33.6989891,38.2750734 L17.1704926,38.2750734 L25.4347408,12.7583578 Z"></path></clipPath><clipPath id="i91"><path d="M25.4347408,12.7583578 L33.6989891,38.2750734 L17.1704926,38.2750734 L25.4347408,12.7583578 Z"></path></clipPath><clipPath id="i92"><path d="M25.4347408,12.7583578 L33.6989891,38.2750734 L17.1704926,38.2750734 L25.4347408,12.7583578 Z"></path></clipPath><clipPath id="i93"><path d="M25.4347408,12.7583578 L33.6989891,38.2750734 L17.1704926,38.2750734 L25.4347408,12.7583578 Z"></path></clipPath><clipPath id="i94"><path d="M25.4347408,12.7583578 L33.6989891,38.2750734 L17.1704926,38.2750734 L25.4347408,12.7583578 Z"></path></clipPath><clipPath id="i95"><path d="M25.4347408,12.7583578 L33.6989891,38.2750734 L17.1704926,38.2750734 L25.4347408,12.7583578 Z"></path></clipPath><clipPath id="i96"><path d="M25.4347408,12.7583578 L33.6989891,38.2750734 L17.1704926,38.2750734 L25.4347408,12.7583578 Z"></path></clipPath><clipPath id="i97"><path d="M25.4347408,12.7583578 L33.6989891,38.2750734 L17.1704926,38.2750734 L25.4347408,12.7583578 Z"></path></clipPath><clipPath id="i98"><path d="M25.4347408,12.7583578 L33.6989891,38.2750734 L17.1704926,38.2750734 L25.4347408,12.7583578 Z"></path></clipPath><clipPath id="i99"><path d="M25.4347408,12.7583578 L33.6989891,38.2750734 L17.1704926,38.2750734 L25.4347408,12.7583578 Z"></path></clipPath><clipPath id="i100"><path d="M25.4347408,12.7583578 L33.6989891,38.2750734 L17.1704926,38.2750734 L25.4347408,12.7583578 Z"></path></clipPath><clipPath id="i101"><path d="M25.4347408,12.7583578 L33.6989891,38.2750734 L17.1704926,38.2750734 L25.4347408,12.7583578 Z"></path></clipPath><clipPath id="i102"><path d="M25.4347408,12.7583578 L33.6989891,38.2750734 L17.1704926,38.2750734 L25.4347408,12.7583578 Z"></path></clipPath><clipPath id="i103"><path d="M25.4347408,12.7583578 L33.6989891,38.2750734 L17.1704926,38.2750734 L25.4347408,12.7583578 Z"></path></clipPath><clipPath id="i104"><path d="M25.4347408,12.7583578 L33.6989891,38.2750734 L17.1704926,38.2750734 L25.4347408,12.7583578 Z"></path></clipPath><clipPath id="i105"><path d="M25.4347408,12.7583578 L33.6989891,38.2750734 L17.1704926,38.2750734 L25.4347408,12.7583578 Z"></path></clipPath><clipPath id="i106"><path d="M25.4347408,12.7583578 L33.6989891,38.2750734 L17.1704926,38.2750734 L25.4347408,12.7583578 Z"></path></clipPath><clipPath id="i107"><path d="M25.4347408,12.7583578 L33.6989891,38.2750734 L17.1704926,38.2750734 L25.4347408,12.7583578 Z"></path></clipPath><clipPath id="i108"><path d="M25.4347408,12.7583578 L33.6989891,38.2750734 L17.1704926,38.2750734 L25.4347408,12.7583578 Z"></path></clipPath><clipPath id="i109"><path d="M25.4347408,12.7583578 L33.6989891,38.2750734 L17.1704926,38.2750734 L25.4347408,12.7583578 Z"></path></clipPath><clipPath id="i110"><path d="M25.4347408,12.7583578 L33.6989891,38.2750734 L17.1704926,38.2750734 L25.4347408,12.7583578 Z"></path></clipPath><clipPath id="i111"><path d="M25.4347408,12.7583578 L33.6989891,38.2750734 L17.1704926,38.2750734 L25.4347408,12.7583578 Z"></path></clipPath><clipPath id="i112"><path d="M25.4347408,12.7583578 L33.6989891,38.2750734 L17.1704926,38.2750734 L25.4347408,12.7583578 Z"></path></clipPath><clipPath id="i113"><path d="M25.4347408,12.7583578 L33.6989891,38.2750734 L17.1704926,38.2750734 L25.4347408,12.7583578 Z"></path></clipPath><clipPath id="i114"><path d="M25.4347408,12.7583578 L33.6989891,38.2750734 L17.1704926,38.2750734 L25.4347408,12.7583578 Z"></path></clipPath><clipPath id="i115"><path d="M25.4347408,12.7583578 L33.6989891,38.2750734 L17.1704926,38.2750734 L25.4347408,12.7583578 Z"></path></clipPath><clipPath id="i116"><path d="M25.4347408,12.7583578 L33.6989891,38.2750734 L17.1704926,38.2750734 L25.4347408,12.7583578 Z"></path></clipPath><filter id="i117" x="-3.15604909%" y="-2.92255869%" filterUnits="userSpaceOnUse" width="105.260082%" height="104.870931%"><feGaussianBlur stdDeviation="2" in="SourceAlpha" result="i118"></feGaussianBlur><feOffset dx="2" dy="2" in="i118" result="i119"></feOffset><feColorMatrix values="0 0 0 0.0 0 0 0 0 0.0 0 0 0 0 0.0 0 0 0 0 0.5 0" type="matrix" in="i119"></feColorMatrix></filter><clipPath id="i120"><path d="M259.063779,50.8151318 L241.523935,144.076993 C237.835435,161.115407 249.669801,161.115407 255.510133,153.748294 L296.580625,107.70194 L303.248341,131.085374 C304.017266,134.156121 307.398011,137.38137 312.469924,136.613314 L364.404083,125.677772 L350.763222,175.344546 C347.843084,186.395959 345.565308,190.971623 353.711241,193.886379 L372.222222,202.599458 L282.820996,275.325802 C279.282443,278.075653 277.494633,283.024212 278.75438,287.504789 L286.578875,313.22062 C255.796714,309.66705 228.215374,304.320801 197.417614,301.028187 C194.698803,300.737514 190.569535,305.433086 190.588307,308.588509 L192.944201,402.599112 L177.977757,402.599112 L182.05635,308.386463 C182.075017,305.23104 177.5234,300.737514 174.804589,301.028187 C144.006829,304.320792 116.425527,309.66705 85.6433569,313.22062 L93.4678706,287.504789 C94.7276183,283.024212 92.9397986,278.075653 89.4012457,275.325802 L0,202.599458 L18.5110006,193.886379 C26.6569142,190.971623 24.3791381,186.395959 21.4590006,175.344546 L7.81816747,125.677772 L59.7522985,136.613314 C64.8242116,137.38137 68.2049566,134.156121 68.9738617,131.085374 L75.6415873,107.70194 L116.712099,153.748294 C122.552412,161.115407 134.386768,161.115407 130.698269,144.076993 L113.158395,50.8151318 L136.691883,63.0193889 C143.300567,66.7051688 149.909242,67.3172435 153.597742,60.7181872 L218.624471,60.7181872 C222.31298,67.3172435 228.921493,66.7051688 235.53034,63.0193889 L259.063779,50.8151318 Z"></path></clipPath></defs><g transform="translate(-12.0 -16.0)"><g transform=""><g transform="translate(14.000000000000227 16.0)"><g clip-path="url(#i0)"><polygon points="0,0 981,0 981,658 0,658 0,0" stroke="none" fill="#FFFFFF"></polygon></g><g clip-path="url(#i1)"><polygon points="0,0 981,0 981,51 0,51 0,0" stroke="none" fill="#B22134"></polygon></g><g transform="translate(0.0 101.0)"><g clip-path="url(#i1)"><polygon points="0,0 981,0 981,51 0,51 0,0" stroke="none" fill="#B22134"></polygon></g></g><g transform="translate(0.0 202.0)"><g clip-path="url(#i1)"><polygon points="0,0 981,0 981,51 0,51 0,0" stroke="none" fill="#B22134"></polygon></g></g><g transform="translate(0.0 304.0)"><g clip-path="url(#i1)"><polygon points="0,0 981,0 981,51 0,51 0,0" stroke="none" fill="#B22134"></polygon></g></g><g transform="translate(0.0 405.0)"><g clip-path="url(#i1)"><polygon points="0,0 981,0 981,51 0,51 0,0" stroke="none" fill="#B22134"></polygon></g></g><g transform="translate(0.0 506.0)"><g clip-path="url(#i1)"><polygon points="0,0 981,0 981,51 0,51 0,0" stroke="none" fill="#B22134"></polygon></g></g><g transform="translate(0.0 607.0)"><g clip-path="url(#i1)"><polygon points="0,0 981,0 981,51 0,51 0,0" stroke="none" fill="#B22134"></polygon></g></g></g><g transform="translate(14.000000000000227 16.0)"><g clip-path="url(#i2)"><g transform="translate(0.7546153846153629 2.0246153846154016)"><g clip-path="url(#i0)"><polygon points="0,0 980.245385,0 980.245385,655.975385 0,655.975385 0,0" stroke="none" fill="#00247C"></polygon></g><g clip-path="url(#i3)"><polygon points="0,0 980.245385,0 980.245385,655.975385 0,655.975385 0,0" stroke="none" fill="#000000"></polygon></g><path d="M0,0 L981,658 M981,0 L0,658" stroke="#FFFFFF" stroke-width="130" fill="none" stroke-miterlimit="10"></path><g transform="translate(0.0 328.9999999999999)"><g clip-path="url(#i4)"><path d="M0,329 L490.5,0 L981,329" stroke="#CF142B" stroke-width="86.6666667" fill="none" stroke-miterlimit="10"></path></g></g><g clip-path="url(#i3)"><polygon points="0,0 980.245385,0 980.245385,655.975385 0,655.975385 0,0" stroke="none" fill="#000000"></polygon></g><path d="M490.5,0 L490.5,658 M0,329 L981,329" stroke="#FFFFFF" stroke-width="216.666667" fill="none" stroke-miterlimit="10"></path><g clip-path="url(#i3)"><polygon points="0,0 980.245385,0 980.245385,655.975385 0,655.975385 0,0" stroke="none" fill="#000000"></polygon></g><path d="M490.5,0 L490.5,658 M0,329 L981,329" stroke="#CF142B" stroke-width="130" fill="none" stroke-miterlimit="10"></path></g></g></g><g transform=""><g transform="translate(12.006420559170692 16.01742346465133)"><g clip-path="url(#i5)"><polygon points="0,0 387,0 387,274.40835 0,274.40835 0,0" stroke="none" fill="#3B3B6E"></polygon></g></g><g transform=""><g transform="translate(43.40438114410742 71.2095248855695) rotate(-144.0)"><g transform=""><g clip-path="url(#i6)"><polygon points="17.1704926,12.7583578 33.6989891,12.7583578 33.6989891,38.2750734 17.1704926,38.2750734 17.1704926,12.7583578" stroke="none" fill="#FFFFFF"></polygon></g></g></g><g transform="translate(17.31997628289973 50.5293662415441) rotate(-72.0)"><g transform=""><g clip-path="url(#i7)"><polygon points="17.1704926,12.7583578 33.6989891,12.7583578 33.6989891,38.2750734 17.1704926,38.2750734 17.1704926,12.7583578" stroke="none" fill="#FFFFFF"></polygon></g></g></g><g transform="translate(28.923200571078947 19.36672630920246)"><g clip-path="url(#i7)"><polygon points="17.1704926,12.7583578 33.6989891,12.7583578 33.6989891,38.2750734 17.1704926,38.2750734 17.1704926,12.7583578" stroke="none" fill="#FFFFFF"></polygon></g></g><g transform="translate(62.17879242146841 20.787314295867894) rotate(72.0)"><g transform=""><g clip-path="url(#i8)"><polygon points="17.1704926,12.7583578 33.6989891,12.7583578 33.6989891,38.2750734 17.1704926,38.2750734 17.1704926,12.7583578" stroke="none" fill="#FFFFFF"></polygon></g></g></g><g transform="translate(71.12865421282477 52.82792588797803) rotate(144.0)"><g transform=""><g clip-path="url(#i9)"><polygon points="17.1704926,12.7583578 33.6989891,12.7583578 33.6989891,38.2750734 17.1704926,38.2750734 17.1704926,12.7583578" stroke="none" fill="#FFFFFF"></polygon></g></g></g><g transform="translate(64.0955469084306 1.9895196601282805e-13)"><g transform="translate(43.40438114410769 71.20952488556946) rotate(-144.0)"><g clip-path="url(#i10)"><polygon points="17.1704926,12.7583578 33.6989891,12.7583578 33.6989891,38.2750734 17.1704926,38.2750734 17.1704926,12.7583578" stroke="none" fill="#FFFFFF"></polygon></g></g><g transform="translate(17.319976282900427 50.52936624154394) rotate(-72.0)"><g transform=""><g clip-path="url(#i11)"><polygon points="17.1704926,12.7583578 33.6989891,12.7583578 33.6989891,38.2750734 17.1704926,38.2750734 17.1704926,12.7583578" stroke="none" fill="#FFFFFF"></polygon></g></g></g><g transform="translate(28.923200571079168 19.366726309202246)"><g clip-path="url(#i12)"><polygon points="17.1704926,12.7583578 33.6989891,12.7583578 33.6989891,38.2750734 17.1704926,38.2750734 17.1704926,12.7583578" stroke="none" fill="#FFFFFF"></polygon></g></g><g transform="translate(62.178792421468614 20.787314295868107) rotate(72.0)"><g transform=""><g clip-path="url(#i13)"><polygon points="17.1704926,12.7583578 33.6989891,12.7583578 33.6989891,38.2750734 17.1704926,38.2750734 17.1704926,12.7583578" stroke="none" fill="#FFFFFF"></polygon></g></g></g><g transform="translate(71.12865421282498 52.82792588797737) rotate(144.0)"><g transform=""><g clip-path="url(#i14)"><polygon points="17.1704926,12.7583578 33.6989891,12.7583578 33.6989891,38.2750734 17.1704926,38.2750734 17.1704926,12.7583578" stroke="none" fill="#FFFFFF"></polygon></g></g></g></g><g transform="translate(128.1910938168616 1.7053025658242404e-13)"><g transform="translate(43.404381144107866 71.20952488556941) rotate(-144.0)"><g transform=""><g clip-path="url(#i15)"><polygon points="17.1704926,12.7583578 33.6989891,12.7583578 33.6989891,38.2750734 17.1704926,38.2750734 17.1704926,12.7583578" stroke="none" fill="#FFFFFF"></polygon></g></g></g><g transform="translate(17.319976282900413 50.52936624154312) rotate(-72.0)"><g clip-path="url(#i9)"><polygon points="17.1704926,12.7583578 33.6989891,12.7583578 33.6989891,38.2750734 17.1704926,38.2750734 17.1704926,12.7583578" stroke="none" fill="#FFFFFF"></polygon></g></g><g transform="translate(28.92320057107894 19.366726309202285)"><g clip-path="url(#i14)"><polygon points="17.1704926,12.7583578 33.6989891,12.7583578 33.6989891,38.2750734 17.1704926,38.2750734 17.1704926,12.7583578" stroke="none" fill="#FFFFFF"></polygon></g></g><g transform="translate(62.1787924214684 20.787314295868057) rotate(72.0)"><g transform=""><g clip-path="url(#i6)"><polygon points="17.1704926,12.7583578 33.6989891,12.7583578 33.6989891,38.2750734 17.1704926,38.2750734 17.1704926,12.7583578" stroke="none" fill="#FFFFFF"></polygon></g></g></g><g transform="translate(71.12865421282473 52.827925887977145) rotate(144.0)"><g transform=""><g clip-path="url(#i16)"><polygon points="17.1704926,12.7583578 33.6989891,12.7583578 33.6989891,38.2750734 17.1704926,38.2750734 17.1704926,12.7583578" stroke="none" fill="#FFFFFF"></polygon></g></g></g></g><g transform="translate(192.286640725292 5.684341886080801e-13)"><g transform="translate(43.4043811441076 71.20952488556944) rotate(-144.0)"><g transform=""><g clip-path="url(#i17)"><polygon points="17.1704926,12.7583578 33.6989891,12.7583578 33.6989891,38.2750734 17.1704926,38.2750734 17.1704926,12.7583578" stroke="none" fill="#FFFFFF"></polygon></g></g></g><g transform="translate(17.319976282901067 50.52936624154365) rotate(-72.0)"><g transform=""><g clip-path="url(#i18)"><polygon points="17.1704926,12.7583578 33.6989891,12.7583578 33.6989891,38.2750734 17.1704926,38.2750734 17.1704926,12.7583578" stroke="none" fill="#FFFFFF"></polygon></g></g></g><g transform="translate(28.92320057107939 19.36672630920149)"><g clip-path="url(#i19)"><polygon points="17.1704926,12.7583578 33.6989891,12.7583578 33.6989891,38.2750734 17.1704926,38.2750734 17.1704926,12.7583578" stroke="none" fill="#FFFFFF"></polygon></g></g><g transform="translate(62.178792421468806 20.78731429586773) rotate(72.0)"><g transform=""><g clip-path="url(#i20)"><polygon points="17.1704926,12.7583578 33.6989891,12.7583578 33.6989891,38.2750734 17.1704926,38.2750734 17.1704926,12.7583578" stroke="none" fill="#FFFFFF"></polygon></g></g></g><g transform="translate(71.12865421282469 52.82792588797699) rotate(144.0)"><g transform=""><g clip-path="url(#i21)"><polygon points="17.1704926,12.7583578 33.6989891,12.7583578 33.6989891,38.2750734 17.1704926,38.2750734 17.1704926,12.7583578" stroke="none" fill="#FFFFFF"></polygon></g></g></g></g><g transform="translate(256.38218763372333 2.2737367544323206e-13)"><g transform="translate(43.40438114410723 71.20952488556944) rotate(-144.0)"><g clip-path="url(#i22)"><polygon points="17.1704926,12.7583578 33.6989891,12.7583578 33.6989891,38.2750734 17.1704926,38.2750734 17.1704926,12.7583578" stroke="none" fill="#FFFFFF"></polygon></g></g><g transform="translate(17.319976282900193 50.52936624154306) rotate(-72.0)"><g clip-path="url(#i23)"><polygon points="17.1704926,12.7583578 33.6989891,12.7583578 33.6989891,38.2750734 17.1704926,38.2750734 17.1704926,12.7583578" stroke="none" fill="#FFFFFF"></polygon></g></g><g transform="translate(28.92320057107872 19.36672630920223)"><g clip-path="url(#i15)"><polygon points="17.1704926,12.7583578 33.6989891,12.7583578 33.6989891,38.2750734 17.1704926,38.2750734 17.1704926,12.7583578" stroke="none" fill="#FFFFFF"></polygon></g></g><g transform="translate(62.17879242146837 20.78731429586739) rotate(72.0)"><g clip-path="url(#i24)"><polygon points="17.1704926,12.7583578 33.6989891,12.7583578 33.6989891,38.2750734 17.1704926,38.2750734 17.1704926,12.7583578" stroke="none" fill="#FFFFFF"></polygon></g></g><g transform="translate(71.12865421282476 52.82792588797723) rotate(144.0)"><g transform=""><g clip-path="url(#i25)"><polygon points="17.1704926,12.7583578 33.6989891,12.7583578 33.6989891,38.2750734 17.1704926,38.2750734 17.1704926,12.7583578" stroke="none" fill="#FFFFFF"></polygon></g></g></g></g><g transform="translate(320.4777345422119 1.1368683772161603e-13)"><g transform="translate(43.404381144107425 71.20952488556946) rotate(-144.0)"><g transform=""><g clip-path="url(#i14)"><polygon points="17.1704926,12.7583578 33.6989891,12.7583578 33.6989891,38.2750734 17.1704926,38.2750734 17.1704926,12.7583578" stroke="none" fill="#FFFFFF"></polygon></g></g></g><g transform="translate(17.319976282900846 50.52936624154404) rotate(-72.0)"><g transform=""><g clip-path="url(#i26)"><polygon points="17.1704926,12.7583578 33.6989891,12.7583578 33.6989891,38.2750734 17.1704926,38.2750734 17.1704926,12.7583578" stroke="none" fill="#FFFFFF"></polygon></g></g></g><g transform="translate(28.923200571079164 19.36672630920234)"><g clip-path="url(#i27)"><polygon points="17.1704926,12.7583578 33.6989891,12.7583578 33.6989891,38.2750734 17.1704926,38.2750734 17.1704926,12.7583578" stroke="none" fill="#FFFFFF"></polygon></g></g><g transform="translate(62.17879242146904 20.787314295867773) rotate(72.0)"><g transform=""><g clip-path="url(#i11)"><polygon points="17.1704926,12.7583578 33.6989891,12.7583578 33.6989891,38.2750734 17.1704926,38.2750734 17.1704926,12.7583578" stroke="none" fill="#FFFFFF"></polygon></g></g></g><g transform="translate(71.12865421282474 52.82792588797774) rotate(144.0)"><g transform=""><g clip-path="url(#i23)"><polygon points="17.1704926,12.7583578 33.6989891,12.7583578 33.6989891,38.2750734 17.1704926,38.2750734 17.1704926,12.7583578" stroke="none" fill="#FFFFFF"></polygon></g></g></g></g><g transform="translate(32.04777345421553 27.558052848488565)"><g transform=""><g transform="translate(43.40438114410744 71.2095248855695) rotate(-144.0)"><g clip-path="url(#i28)"><polygon points="17.1704926,12.7583578 33.6989891,12.7583578 33.6989891,38.2750734 17.1704926,38.2750734 17.1704926,12.7583578" stroke="none" fill="#FFFFFF"></polygon></g></g><g transform="translate(17.31997628290018 50.529366241544245) rotate(-72.0)"><g transform=""><g clip-path="url(#i29)"><polygon points="17.1704926,12.7583578 33.6989891,12.7583578 33.6989891,38.2750734 17.1704926,38.2750734 17.1704926,12.7583578" stroke="none" fill="#FFFFFF"></polygon></g></g></g><g transform="translate(28.923200571078937 19.36672630920183)"><g clip-path="url(#i22)"><polygon points="17.1704926,12.7583578 33.6989891,12.7583578 33.6989891,38.2750734 17.1704926,38.2750734 17.1704926,12.7583578" stroke="none" fill="#FFFFFF"></polygon></g></g><g transform="translate(62.17879242146863 20.78731429586827) rotate(72.0)"><g transform=""><g clip-path="url(#i28)"><polygon points="17.1704926,12.7583578 33.6989891,12.7583578 33.6989891,38.2750734 17.1704926,38.2750734 17.1704926,12.7583578" stroke="none" fill="#FFFFFF"></polygon></g></g></g><g transform="translate(71.12865421282478 52.82792588797682) rotate(144.0)"><g transform=""><g clip-path="url(#i30)"><polygon points="17.1704926,12.7583578 33.6989891,12.7583578 33.6989891,38.2750734 17.1704926,38.2750734 17.1704926,12.7583578" stroke="none" fill="#FFFFFF"></polygon></g></g></g></g><g transform="translate(64.0955469084306 3.126388037344441e-13)"><g transform="translate(43.40438114410765 71.2095248855695) rotate(-144.0)"><g clip-path="url(#i28)"><polygon points="17.1704926,12.7583578 33.6989891,12.7583578 33.6989891,38.2750734 17.1704926,38.2750734 17.1704926,12.7583578" stroke="none" fill="#FFFFFF"></polygon></g></g><g transform="translate(17.31997628290017 50.52936624154427) rotate(-72.0)"><g transform=""><g clip-path="url(#i31)"><polygon points="17.1704926,12.7583578 33.6989891,12.7583578 33.6989891,38.2750734 17.1704926,38.2750734 17.1704926,12.7583578" stroke="none" fill="#FFFFFF"></polygon></g></g></g><g transform="translate(28.92320057107916 19.366726309202228)"><g clip-path="url(#i14)"><polygon points="17.1704926,12.7583578 33.6989891,12.7583578 33.6989891,38.2750734 17.1704926,38.2750734 17.1704926,12.7583578" stroke="none" fill="#FFFFFF"></polygon></g></g><g transform="translate(62.17879242146865 20.787314295867382) rotate(72.0)"><g clip-path="url(#i32)"><polygon points="17.1704926,12.7583578 33.6989891,12.7583578 33.6989891,38.2750734 17.1704926,38.2750734 17.1704926,12.7583578" stroke="none" fill="#FFFFFF"></polygon></g></g><g transform="translate(71.12865421282476 52.827925887976996) rotate(144.0)"><g transform=""><g clip-path="url(#i30)"><polygon points="17.1704926,12.7583578 33.6989891,12.7583578 33.6989891,38.2750734 17.1704926,38.2750734 17.1704926,12.7583578" stroke="none" fill="#FFFFFF"></polygon></g></g></g></g><g transform="translate(128.1910938168612 5.684341886080801e-13)"><g transform="translate(43.404381144108115 71.20952488556945) rotate(-144.0)"><g transform=""><g clip-path="url(#i33)"><polygon points="17.1704926,12.7583578 33.6989891,12.7583578 33.6989891,38.2750734 17.1704926,38.2750734 17.1704926,12.7583578" stroke="none" fill="#FFFFFF"></polygon></g></g></g><g transform="translate(17.319976282900853 50.52936624154392) rotate(-72.0)"><g transform=""><g clip-path="url(#i34)"><polygon points="17.1704926,12.7583578 33.6989891,12.7583578 33.6989891,38.2750734 17.1704926,38.2750734 17.1704926,12.7583578" stroke="none" fill="#FFFFFF"></polygon></g></g></g><g transform="translate(28.9232005710794 19.366726309201972)"><g clip-path="url(#i30)"><polygon points="17.1704926,12.7583578 33.6989891,12.7583578 33.6989891,38.2750734 17.1704926,38.2750734 17.1704926,12.7583578" stroke="none" fill="#FFFFFF"></polygon></g></g><g transform="translate(62.17879242146885 20.787314295867738) rotate(72.0)"><g transform=""><g clip-path="url(#i35)"><polygon points="17.1704926,12.7583578 33.6989891,12.7583578 33.6989891,38.2750734 17.1704926,38.2750734 17.1704926,12.7583578" stroke="none" fill="#FFFFFF"></polygon></g></g></g><g transform="translate(71.12865421282476 52.82792588797698) rotate(144.0)"><g transform=""><g clip-path="url(#i33)"><polygon points="17.1704926,12.7583578 33.6989891,12.7583578 33.6989891,38.2750734 17.1704926,38.2750734 17.1704926,12.7583578" stroke="none" fill="#FFFFFF"></polygon></g></g></g></g><g transform="translate(192.286640725292 0.0)"><g transform="translate(43.40438114410748 71.20952488556946) rotate(-144.0)"><g transform=""><g clip-path="url(#i36)"><polygon points="17.1704926,12.7583578 33.6989891,12.7583578 33.6989891,38.2750734 17.1704926,38.2750734 17.1704926,12.7583578" stroke="none" fill="#FFFFFF"></polygon></g></g></g><g transform="translate(17.319976282900413 50.529366241544565) rotate(-72.0)"><g transform=""><g clip-path="url(#i37)"><polygon points="17.1704926,12.7583578 33.6989891,12.7583578 33.6989891,38.2750734 17.1704926,38.2750734 17.1704926,12.7583578" stroke="none" fill="#FFFFFF"></polygon></g></g></g><g transform="translate(28.92320057107918 19.366726309202544)"><g clip-path="url(#i37)"><polygon points="17.1704926,12.7583578 33.6989891,12.7583578 33.6989891,38.2750734 17.1704926,38.2750734 17.1704926,12.7583578" stroke="none" fill="#FFFFFF"></polygon></g></g><g transform="translate(62.17879242146887 20.787314295868534) rotate(72.0)"><g transform=""><g clip-path="url(#i37)"><polygon points="17.1704926,12.7583578 33.6989891,12.7583578 33.6989891,38.2750734 17.1704926,38.2750734 17.1704926,12.7583578" stroke="none" fill="#FFFFFF"></polygon></g></g></g><g transform="translate(71.12865421282481 52.82792588797761) rotate(144.0)"><g transform=""><g clip-path="url(#i38)"><polygon points="17.1704926,12.7583578 33.6989891,12.7583578 33.6989891,38.2750734 17.1704926,38.2750734 17.1704926,12.7583578" stroke="none" fill="#FFFFFF"></polygon></g></g></g></g><g transform="translate(256.38218763372333 3.979039320256561e-13)"><g transform="translate(43.404381144107475 71.2095248855695) rotate(-144.0)"><g transform=""><g clip-path="url(#i39)"><polygon points="17.1704926,12.7583578 33.6989891,12.7583578 33.6989891,38.2750734 17.1704926,38.2750734 17.1704926,12.7583578" stroke="none" fill="#FFFFFF"></polygon></g></g></g><g transform="translate(17.31997628290066 50.5293662415437) rotate(-72.0)"><g transform=""><g clip-path="url(#i40)"><polygon points="17.1704926,12.7583578 33.6989891,12.7583578 33.6989891,38.2750734 17.1704926,38.2750734 17.1704926,12.7583578" stroke="none" fill="#FFFFFF"></polygon></g></g></g><g transform="translate(28.923200571079168 19.36672630920214)"><g clip-path="url(#i39)"><polygon points="17.1704926,12.7583578 33.6989891,12.7583578 33.6989891,38.2750734 17.1704926,38.2750734 17.1704926,12.7583578" stroke="none" fill="#FFFFFF"></polygon></g></g><g transform="translate(62.178792421468884 20.787314295867716) rotate(72.0)"><g transform=""><g clip-path="url(#i41)"><polygon points="17.1704926,12.7583578 33.6989891,12.7583578 33.6989891,38.2750734 17.1704926,38.2750734 17.1704926,12.7583578" stroke="none" fill="#FFFFFF"></polygon></g></g></g><g transform="translate(71.12865421282504 52.82792588797701) rotate(144.0)"><g transform=""><g clip-path="url(#i38)"><polygon points="17.1704926,12.7583578 33.6989891,12.7583578 33.6989891,38.2750734 17.1704926,38.2750734 17.1704926,12.7583578" stroke="none" fill="#FFFFFF"></polygon></g></g></g></g></g><g transform="translate(0.0 55.11610569700693)"><g transform=""><g transform=""><g transform="translate(43.40438114410746 71.20952488556944) rotate(-144.0)"><g transform=""><g clip-path="url(#i42)"><polygon points="17.1704926,12.7583578 33.6989891,12.7583578 33.6989891,38.2750734 17.1704926,38.2750734 17.1704926,12.7583578" stroke="none" fill="#FFFFFF"></polygon></g></g></g><g transform="translate(17.31997628289998 50.52936624154354) rotate(-72.0)"><g transform=""><g clip-path="url(#i11)"><polygon points="17.1704926,12.7583578 33.6989891,12.7583578 33.6989891,38.2750734 17.1704926,38.2750734 17.1704926,12.7583578" stroke="none" fill="#FFFFFF"></polygon></g></g></g><g transform="translate(28.92320057107895 19.366726309201628)"><g clip-path="url(#i43)"><polygon points="17.1704926,12.7583578 33.6989891,12.7583578 33.6989891,38.2750734 17.1704926,38.2750734 17.1704926,12.7583578" stroke="none" fill="#FFFFFF"></polygon></g></g><g transform="translate(62.17879242146794 20.78731429586746) rotate(72.0)"><g transform=""><g clip-path="url(#i30)"><polygon points="17.1704926,12.7583578 33.6989891,12.7583578 33.6989891,38.2750734 17.1704926,38.2750734 17.1704926,12.7583578" stroke="none" fill="#FFFFFF"></polygon></g></g></g><g transform="translate(71.12865421282476 52.82792588797699) rotate(144.0)"><g clip-path="url(#i44)"><polygon points="17.1704926,12.7583578 33.6989891,12.7583578 33.6989891,38.2750734 17.1704926,38.2750734 17.1704926,12.7583578" stroke="none" fill="#FFFFFF"></polygon></g></g></g><g transform="translate(64.0955469084306 0.0)"><g transform="translate(43.40438114410743 71.20952488556941) rotate(-144.0)"><g transform=""><g clip-path="url(#i11)"><polygon points="17.1704926,12.7583578 33.6989891,12.7583578 33.6989891,38.2750734 17.1704926,38.2750734 17.1704926,12.7583578" stroke="none" fill="#FFFFFF"></polygon></g></g></g><g transform="translate(17.319976282899965 50.52936624154391) rotate(-72.0)"><g transform=""><g clip-path="url(#i33)"><polygon points="17.1704926,12.7583578 33.6989891,12.7583578 33.6989891,38.2750734 17.1704926,38.2750734 17.1704926,12.7583578" stroke="none" fill="#FFFFFF"></polygon></g></g></g><g transform="translate(28.923200571078954 19.36672630920234)"><g clip-path="url(#i45)"><polygon points="17.1704926,12.7583578 33.6989891,12.7583578 33.6989891,38.2750734 17.1704926,38.2750734 17.1704926,12.7583578" stroke="none" fill="#FFFFFF"></polygon></g></g><g transform="translate(62.178792421467925 20.787314295868136) rotate(72.0)"><g transform=""><g clip-path="url(#i25)"><polygon points="17.1704926,12.7583578 33.6989891,12.7583578 33.6989891,38.2750734 17.1704926,38.2750734 17.1704926,12.7583578" stroke="none" fill="#FFFFFF"></polygon></g></g></g><g transform="translate(71.12865421282474 52.82792588797742) rotate(144.0)"><g transform=""><g clip-path="url(#i46)"><polygon points="17.1704926,12.7583578 33.6989891,12.7583578 33.6989891,38.2750734 17.1704926,38.2750734 17.1704926,12.7583578" stroke="none" fill="#FFFFFF"></polygon></g></g></g></g><g transform="translate(128.1910938168619 5.684341886080802e-14)"><g transform="translate(43.404381144107205 71.20952488556941) rotate(-144.0)"><g transform=""><g clip-path="url(#i47)"><polygon points="17.1704926,12.7583578 33.6989891,12.7583578 33.6989891,38.2750734 17.1704926,38.2750734 17.1704926,12.7583578" stroke="none" fill="#FFFFFF"></polygon></g></g></g><g transform="translate(17.31997628290039 50.529366241543954) rotate(-72.0)"><g transform=""><g clip-path="url(#i48)"><polygon points="17.1704926,12.7583578 33.6989891,12.7583578 33.6989891,38.2750734 17.1704926,38.2750734 17.1704926,12.7583578" stroke="none" fill="#FFFFFF"></polygon></g></g></g><g transform="translate(28.92320057107873 19.366726309201887)"><g clip-path="url(#i49)"><polygon points="17.1704926,12.7583578 33.6989891,12.7583578 33.6989891,38.2750734 17.1704926,38.2750734 17.1704926,12.7583578" stroke="none" fill="#FFFFFF"></polygon></g></g><g transform="translate(62.178792421468145 20.787314295868008) rotate(72.0)"><g transform=""><g clip-path="url(#i47)"><polygon points="17.1704926,12.7583578 33.6989891,12.7583578 33.6989891,38.2750734 17.1704926,38.2750734 17.1704926,12.7583578" stroke="none" fill="#FFFFFF"></polygon></g></g></g><g transform="translate(71.12865421282474 52.827925887977564) rotate(144.0)"><g transform=""><g clip-path="url(#i15)"><polygon points="17.1704926,12.7583578 33.6989891,12.7583578 33.6989891,38.2750734 17.1704926,38.2750734 17.1704926,12.7583578" stroke="none" fill="#FFFFFF"></polygon></g></g></g></g><g transform="translate(192.2866407252925 1.9895196601282805e-13)"><g transform="translate(43.40438114410727 71.20952488556946) rotate(-144.0)"><g transform=""><g clip-path="url(#i50)"><polygon points="17.1704926,12.7583578 33.6989891,12.7583578 33.6989891,38.2750734 17.1704926,38.2750734 17.1704926,12.7583578" stroke="none" fill="#FFFFFF"></polygon></g></g></g><g transform="translate(17.319976282900242 50.529366241543826) rotate(-72.0)"><g transform=""><g clip-path="url(#i51)"><polygon points="17.1704926,12.7583578 33.6989891,12.7583578 33.6989891,38.2750734 17.1704926,38.2750734 17.1704926,12.7583578" stroke="none" fill="#FFFFFF"></polygon></g></g></g><g transform="translate(28.923200571078958 19.366726309201745)"><g clip-path="url(#i52)"><polygon points="17.1704926,12.7583578 33.6989891,12.7583578 33.6989891,38.2750734 17.1704926,38.2750734 17.1704926,12.7583578" stroke="none" fill="#FFFFFF"></polygon></g></g><g transform="translate(62.17879242146819 20.78731429586739) rotate(72.0)"><g transform=""><g clip-path="url(#i53)"><polygon points="17.1704926,12.7583578 33.6989891,12.7583578 33.6989891,38.2750734 17.1704926,38.2750734 17.1704926,12.7583578" stroke="none" fill="#FFFFFF"></polygon></g></g></g><g transform="translate(71.12865421282481 52.827925887977095) rotate(144.0)"><g clip-path="url(#i54)"><polygon points="17.1704926,12.7583578 33.6989891,12.7583578 33.6989891,38.2750734 17.1704926,38.2750734 17.1704926,12.7583578" stroke="none" fill="#FFFFFF"></polygon></g></g></g><g transform="translate(256.3821876337231 2.8421709430404007e-13)"><g transform="translate(43.404381144107646 71.20952488556944) rotate(-144.0)"><g clip-path="url(#i25)"><polygon points="17.1704926,12.7583578 33.6989891,12.7583578 33.6989891,38.2750734 17.1704926,38.2750734 17.1704926,12.7583578" stroke="none" fill="#FFFFFF"></polygon></g></g><g transform="translate(17.31997628290042 50.52936624154374) rotate(-72.0)"><g transform=""><g clip-path="url(#i23)"><polygon points="17.1704926,12.7583578 33.6989891,12.7583578 33.6989891,38.2750734 17.1704926,38.2750734 17.1704926,12.7583578" stroke="none" fill="#FFFFFF"></polygon></g></g></g><g transform="translate(28.923200571078947 19.36672630920183)"><g clip-path="url(#i9)"><polygon points="17.1704926,12.7583578 33.6989891,12.7583578 33.6989891,38.2750734 17.1704926,38.2750734 17.1704926,12.7583578" stroke="none" fill="#FFFFFF"></polygon></g></g><g transform="translate(62.178792421468586 20.7873142958679) rotate(72.0)"><g transform=""><g clip-path="url(#i16)"><polygon points="17.1704926,12.7583578 33.6989891,12.7583578 33.6989891,38.2750734 17.1704926,38.2750734 17.1704926,12.7583578" stroke="none" fill="#FFFFFF"></polygon></g></g></g><g transform="translate(71.12865421282474 52.8279258879776) rotate(144.0)"><g transform=""><g clip-path="url(#i55)"><polygon points="17.1704926,12.7583578 33.6989891,12.7583578 33.6989891,38.2750734 17.1704926,38.2750734 17.1704926,12.7583578" stroke="none" fill="#FFFFFF"></polygon></g></g></g></g></g><g transform="translate(320.4777345422119 0.0)"><g transform="translate(43.40438114410771 71.20952488556945) rotate(-144.0)"><g transform=""><g clip-path="url(#i56)"><polygon points="17.1704926,12.7583578 33.6989891,12.7583578 33.6989891,38.2750734 17.1704926,38.2750734 17.1704926,12.7583578" stroke="none" fill="#FFFFFF"></polygon></g></g></g><g transform="translate(17.3199762829002 50.52936624154404) rotate(-72.0)"><g transform=""><g clip-path="url(#i57)"><polygon points="17.1704926,12.7583578 33.6989891,12.7583578 33.6989891,38.2750734 17.1704926,38.2750734 17.1704926,12.7583578" stroke="none" fill="#FFFFFF"></polygon></g></g></g><g transform="translate(28.92320057107895 19.36672630920203)"><g clip-path="url(#i30)"><polygon points="17.1704926,12.7583578 33.6989891,12.7583578 33.6989891,38.2750734 17.1704926,38.2750734 17.1704926,12.7583578" stroke="none" fill="#FFFFFF"></polygon></g></g><g transform="translate(62.17879242146861 20.787314295868015) rotate(72.0)"><g transform=""><g clip-path="url(#i43)"><polygon points="17.1704926,12.7583578 33.6989891,12.7583578 33.6989891,38.2750734 17.1704926,38.2750734 17.1704926,12.7583578" stroke="none" fill="#FFFFFF"></polygon></g></g></g><g transform="translate(71.12865421282476 52.82792588797773) rotate(144.0)"><g transform=""><g clip-path="url(#i9)"><polygon points="17.1704926,12.7583578 33.6989891,12.7583578 33.6989891,38.2750734 17.1704926,38.2750734 17.1704926,12.7583578" stroke="none" fill="#FFFFFF"></polygon></g></g></g></g></g><g transform="translate(32.0477734542153 82.67415854549574)"><g transform=""><g transform="translate(43.404381144108115 71.20952488556946) rotate(-144.0)"><g transform=""><g clip-path="url(#i58)"><polygon points="17.1704926,12.7583578 33.6989891,12.7583578 33.6989891,38.2750734 17.1704926,38.2750734 17.1704926,12.7583578" stroke="none" fill="#FFFFFF"></polygon></g></g></g><g transform="translate(17.319976282900413 50.5293662415433) rotate(-72.0)"><g transform=""><g clip-path="url(#i14)"><polygon points="17.1704926,12.7583578 33.6989891,12.7583578 33.6989891,38.2750734 17.1704926,38.2750734 17.1704926,12.7583578" stroke="none" fill="#FFFFFF"></polygon></g></g></g><g transform="translate(28.92320057107917 19.36672630920211)"><g clip-path="url(#i28)"><polygon points="17.1704926,12.7583578 33.6989891,12.7583578 33.6989891,38.2750734 17.1704926,38.2750734 17.1704926,12.7583578" stroke="none" fill="#FFFFFF"></polygon></g></g><g transform="translate(62.17879242146861 20.787314295867276) rotate(72.0)"><g transform=""><g clip-path="url(#i14)"><polygon points="17.1704926,12.7583578 33.6989891,12.7583578 33.6989891,38.2750734 17.1704926,38.2750734 17.1704926,12.7583578" stroke="none" fill="#FFFFFF"></polygon></g></g></g><g transform="translate(71.12865421282497 52.82792588797693) rotate(144.0)"><g transform=""><g clip-path="url(#i59)"><polygon points="17.1704926,12.7583578 33.6989891,12.7583578 33.6989891,38.2750734 17.1704926,38.2750734 17.1704926,12.7583578" stroke="none" fill="#FFFFFF"></polygon></g></g></g></g><g transform="translate(64.09554690843058 4.547473508864641e-13)"><g transform="translate(43.404381144107425 71.20952488556944) rotate(-144.0)"><g transform=""><g clip-path="url(#i14)"><polygon points="17.1704926,12.7583578 33.6989891,12.7583578 33.6989891,38.2750734 17.1704926,38.2750734 17.1704926,12.7583578" stroke="none" fill="#FFFFFF"></polygon></g></g></g><g transform="translate(17.31997628290064 50.529366241543364) rotate(-72.0)"><g transform=""><g clip-path="url(#i60)"><polygon points="17.1704926,12.7583578 33.6989891,12.7583578 33.6989891,38.2750734 17.1704926,38.2750734 17.1704926,12.7583578" stroke="none" fill="#FFFFFF"></polygon></g></g></g><g transform="translate(28.923200571079175 19.366726309201876)"><g clip-path="url(#i6)"><polygon points="17.1704926,12.7583578 33.6989891,12.7583578 33.6989891,38.2750734 17.1704926,38.2750734 17.1704926,12.7583578" stroke="none" fill="#FFFFFF"></polygon></g></g><g transform="translate(62.178792421468614 20.787314295867446) rotate(72.0)"><g transform=""><g clip-path="url(#i61)"><polygon points="17.1704926,12.7583578 33.6989891,12.7583578 33.6989891,38.2750734 17.1704926,38.2750734 17.1704926,12.7583578" stroke="none" fill="#FFFFFF"></polygon></g></g></g><g transform="translate(71.12865421282497 52.82792588797723) rotate(144.0)"><g transform=""><g clip-path="url(#i25)"><polygon points="17.1704926,12.7583578 33.6989891,12.7583578 33.6989891,38.2750734 17.1704926,38.2750734 17.1704926,12.7583578" stroke="none" fill="#FFFFFF"></polygon></g></g></g></g><g transform="translate(128.1910938168619 3.979039320256561e-13)"><g transform="translate(43.40438114410722 71.20952488556944) rotate(-144.0)"><g transform=""><g clip-path="url(#i62)"><polygon points="17.1704926,12.7583578 33.6989891,12.7583578 33.6989891,38.2750734 17.1704926,38.2750734 17.1704926,12.7583578" stroke="none" fill="#FFFFFF"></polygon></g></g></g><g transform="translate(17.319976282900413 50.529366241543414) rotate(-72.0)"><g transform=""><g clip-path="url(#i14)"><polygon points="17.1704926,12.7583578 33.6989891,12.7583578 33.6989891,38.2750734 17.1704926,38.2750734 17.1704926,12.7583578" stroke="none" fill="#FFFFFF"></polygon></g></g></g><g transform="translate(28.923200571078937 19.366726309201535)"><g clip-path="url(#i28)"><polygon points="17.1704926,12.7583578 33.6989891,12.7583578 33.6989891,38.2750734 17.1704926,38.2750734 17.1704926,12.7583578" stroke="none" fill="#FFFFFF"></polygon></g></g><g transform="translate(62.178792421468636 20.7873142958671) rotate(72.0)"><g clip-path="url(#i63)"><polygon points="17.1704926,12.7583578 33.6989891,12.7583578 33.6989891,38.2750734 17.1704926,38.2750734 17.1704926,12.7583578" stroke="none" fill="#FFFFFF"></polygon></g></g><g transform="translate(71.12865421282478 52.82792588797748) rotate(144.0)"><g transform=""><g clip-path="url(#i64)"><polygon points="17.1704926,12.7583578 33.6989891,12.7583578 33.6989891,38.2750734 17.1704926,38.2750734 17.1704926,12.7583578" stroke="none" fill="#FFFFFF"></polygon></g></g></g></g><g transform="translate(192.28664072529216 1.1368683772161603e-13)"><g transform="translate(43.404381144107674 71.20952488556944) rotate(-144.0)"><g clip-path="url(#i30)"><polygon points="17.1704926,12.7583578 33.6989891,12.7583578 33.6989891,38.2750734 17.1704926,38.2750734 17.1704926,12.7583578" stroke="none" fill="#FFFFFF"></polygon></g></g><g transform="translate(17.319976282900157 50.52936624154422) rotate(-72.0)"><g transform=""><g clip-path="url(#i7)"><polygon points="17.1704926,12.7583578 33.6989891,12.7583578 33.6989891,38.2750734 17.1704926,38.2750734 17.1704926,12.7583578" stroke="none" fill="#FFFFFF"></polygon></g></g></g><g transform="translate(28.92320057107917 19.366726309202217)"><g clip-path="url(#i65)"><polygon points="17.1704926,12.7583578 33.6989891,12.7583578 33.6989891,38.2750734 17.1704926,38.2750734 17.1704926,12.7583578" stroke="none" fill="#FFFFFF"></polygon></g></g><g transform="translate(62.17879242146864 20.787314295867773) rotate(72.0)"><g transform=""><g clip-path="url(#i66)"><polygon points="17.1704926,12.7583578 33.6989891,12.7583578 33.6989891,38.2750734 17.1704926,38.2750734 17.1704926,12.7583578" stroke="none" fill="#FFFFFF"></polygon></g></g></g><g transform="translate(71.12865421282481 52.8279258879779) rotate(144.0)"><g transform=""><g clip-path="url(#i37)"><polygon points="17.1704926,12.7583578 33.6989891,12.7583578 33.6989891,38.2750734 17.1704926,38.2750734 17.1704926,12.7583578" stroke="none" fill="#FFFFFF"></polygon></g></g></g></g><g transform="translate(256.3821876337235 0.0)"><g transform="translate(43.40438114410677 71.20952488556952) rotate(-144.0)"><g transform=""><g clip-path="url(#i12)"><polygon points="17.1704926,12.7583578 33.6989891,12.7583578 33.6989891,38.2750734 17.1704926,38.2750734 17.1704926,12.7583578" stroke="none" fill="#FFFFFF"></polygon></g></g></g><g transform="translate(17.31997628290018 50.52936624154395) rotate(-72.0)"><g transform=""><g clip-path="url(#i29)"><polygon points="17.1704926,12.7583578 33.6989891,12.7583578 33.6989891,38.2750734 17.1704926,38.2750734 17.1704926,12.7583578" stroke="none" fill="#FFFFFF"></polygon></g></g></g><g transform="translate(28.923200571078723 19.366726309202342)"><g clip-path="url(#i30)"><polygon points="17.1704926,12.7583578 33.6989891,12.7583578 33.6989891,38.2750734 17.1704926,38.2750734 17.1704926,12.7583578" stroke="none" fill="#FFFFFF"></polygon></g></g><g transform="translate(62.17879242146819 20.787314295867937) rotate(72.0)"><g transform=""><g clip-path="url(#i37)"><polygon points="17.1704926,12.7583578 33.6989891,12.7583578 33.6989891,38.2750734 17.1704926,38.2750734 17.1704926,12.7583578" stroke="none" fill="#FFFFFF"></polygon></g></g></g><g transform="translate(71.12865421282478 52.827925887977166) rotate(144.0)"><g transform=""><g clip-path="url(#i60)"><polygon points="17.1704926,12.7583578 33.6989891,12.7583578 33.6989891,38.2750734 17.1704926,38.2750734 17.1704926,12.7583578" stroke="none" fill="#FFFFFF"></polygon></g></g></g></g></g></g><g transform="translate(4.547473508864641e-13 110.23221139401322)"><g transform=""><g transform="translate(43.404381144107425 71.20952488556944) rotate(-144.0)"><g clip-path="url(#i14)"><polygon points="17.1704926,12.7583578 33.6989891,12.7583578 33.6989891,38.2750734 17.1704926,38.2750734 17.1704926,12.7583578" stroke="none" fill="#FFFFFF"></polygon></g></g><g transform="translate(17.319976282900157 50.529366241544096) rotate(-72.0)"><g transform=""><g clip-path="url(#i67)"><polygon points="17.1704926,12.7583578 33.6989891,12.7583578 33.6989891,38.2750734 17.1704926,38.2750734 17.1704926,12.7583578" stroke="none" fill="#FFFFFF"></polygon></g></g></g><g transform="translate(28.92320057107895 19.36672630920222)"><g clip-path="url(#i49)"><polygon points="17.1704926,12.7583578 33.6989891,12.7583578 33.6989891,38.2750734 17.1704926,38.2750734 17.1704926,12.7583578" stroke="none" fill="#FFFFFF"></polygon></g></g><g transform="translate(62.1787924214684 20.787314295867382) rotate(72.0)"><g clip-path="url(#i68)"><polygon points="17.1704926,12.7583578 33.6989891,12.7583578 33.6989891,38.2750734 17.1704926,38.2750734 17.1704926,12.7583578" stroke="none" fill="#FFFFFF"></polygon></g></g><g transform="translate(71.12865421282476 52.82792588797723) rotate(144.0)"><g clip-path="url(#i14)"><polygon points="17.1704926,12.7583578 33.6989891,12.7583578 33.6989891,38.2750734 17.1704926,38.2750734 17.1704926,12.7583578" stroke="none" fill="#FFFFFF"></polygon></g></g></g><g transform="translate(64.0955469084306 0.0)"><g transform="translate(43.404381144106964 71.20952488556946) rotate(-144.0)"><g transform=""><g clip-path="url(#i26)"><polygon points="17.1704926,12.7583578 33.6989891,12.7583578 33.6989891,38.2750734 17.1704926,38.2750734 17.1704926,12.7583578" stroke="none" fill="#FFFFFF"></polygon></g></g></g><g transform="translate(17.319976282900384 50.529366241543535) rotate(-72.0)"><g clip-path="url(#i69)"><polygon points="17.1704926,12.7583578 33.6989891,12.7583578 33.6989891,38.2750734 17.1704926,38.2750734 17.1704926,12.7583578" stroke="none" fill="#FFFFFF"></polygon></g></g><g transform="translate(28.923200571078947 19.366726309202683)"><g clip-path="url(#i14)"><polygon points="17.1704926,12.7583578 33.6989891,12.7583578 33.6989891,38.2750734 17.1704926,38.2750734 17.1704926,12.7583578" stroke="none" fill="#FFFFFF"></polygon></g></g><g transform="translate(62.17879242146816 20.787314295868647) rotate(72.0)"><g transform=""><g clip-path="url(#i70)"><polygon points="17.1704926,12.7583578 33.6989891,12.7583578 33.6989891,38.2750734 17.1704926,38.2750734 17.1704926,12.7583578" stroke="none" fill="#FFFFFF"></polygon></g></g></g><g transform="translate(71.12865421282476 52.8279258879777) rotate(144.0)"><g clip-path="url(#i71)"><polygon points="17.1704926,12.7583578 33.6989891,12.7583578 33.6989891,38.2750734 17.1704926,38.2750734 17.1704926,12.7583578" stroke="none" fill="#FFFFFF"></polygon></g></g></g><g transform="translate(128.19109381686144 7.958078640513122e-13)"><g transform="translate(43.40438114410724 71.20952488556944) rotate(-144.0)"><g transform=""><g clip-path="url(#i52)"><polygon points="17.1704926,12.7583578 33.6989891,12.7583578 33.6989891,38.2750734 17.1704926,38.2750734 17.1704926,12.7583578" stroke="none" fill="#FFFFFF"></polygon></g></g></g><g transform="translate(17.319976282900186 50.52936624154333) rotate(-72.0)"><g transform=""><g clip-path="url(#i8)"><polygon points="17.1704926,12.7583578 33.6989891,12.7583578 33.6989891,38.2750734 17.1704926,38.2750734 17.1704926,12.7583578" stroke="none" fill="#FFFFFF"></polygon></g></g></g><g transform="translate(28.92320057107897 19.36672630920188)"><g clip-path="url(#i66)"><polygon points="17.1704926,12.7583578 33.6989891,12.7583578 33.6989891,38.2750734 17.1704926,38.2750734 17.1704926,12.7583578" stroke="none" fill="#FFFFFF"></polygon></g></g><g transform="translate(62.17879242146823 20.787314295867496) rotate(72.0)"><g transform=""><g clip-path="url(#i72)"><polygon points="17.1704926,12.7583578 33.6989891,12.7583578 33.6989891,38.2750734 17.1704926,38.2750734 17.1704926,12.7583578" stroke="none" fill="#FFFFFF"></polygon></g></g></g><g transform="translate(71.12865421282481 52.82792588797693) rotate(144.0)"><g clip-path="url(#i73)"><polygon points="17.1704926,12.7583578 33.6989891,12.7583578 33.6989891,38.2750734 17.1704926,38.2750734 17.1704926,12.7583578" stroke="none" fill="#FFFFFF"></polygon></g></g></g><g transform="translate(192.2866407252923 5.115907697472721e-13)"><g transform="translate(43.40438114410766 71.2095248855695) rotate(-144.0)"><g transform=""><g clip-path="url(#i74)"><polygon points="17.1704926,12.7583578 33.6989891,12.7583578 33.6989891,38.2750734 17.1704926,38.2750734 17.1704926,12.7583578" stroke="none" fill="#FFFFFF"></polygon></g></g></g><g transform="translate(17.319976282900406 50.52936624154302) rotate(-72.0)"><g clip-path="url(#i68)"><polygon points="17.1704926,12.7583578 33.6989891,12.7583578 33.6989891,38.2750734 17.1704926,38.2750734 17.1704926,12.7583578" stroke="none" fill="#FFFFFF"></polygon></g></g><g transform="translate(28.92320057107896 19.366726309202157)"><g clip-path="url(#i71)"><polygon points="17.1704926,12.7583578 33.6989891,12.7583578 33.6989891,38.2750734 17.1704926,38.2750734 17.1704926,12.7583578" stroke="none" fill="#FFFFFF"></polygon></g></g><g transform="translate(62.178792421468636 20.787314295867333) rotate(72.0)"><g clip-path="url(#i68)"><polygon points="17.1704926,12.7583578 33.6989891,12.7583578 33.6989891,38.2750734 17.1704926,38.2750734 17.1704926,12.7583578" stroke="none" fill="#FFFFFF"></polygon></g></g><g transform="translate(71.12865421282476 52.82792588797718) rotate(144.0)"><g clip-path="url(#i6)"><polygon points="17.1704926,12.7583578 33.6989891,12.7583578 33.6989891,38.2750734 17.1704926,38.2750734 17.1704926,12.7583578" stroke="none" fill="#FFFFFF"></polygon></g></g></g><g transform="translate(256.38218763372345 5.542233338928781e-13)"><g transform="translate(43.404381144107184 71.20952488556945) rotate(-144.0)"><g transform=""><g clip-path="url(#i6)"><polygon points="17.1704926,12.7583578 33.6989891,12.7583578 33.6989891,38.2750734 17.1704926,38.2750734 17.1704926,12.7583578" stroke="none" fill="#FFFFFF"></polygon></g></g></g><g transform="translate(17.31997628289993 50.5293662415429) rotate(-72.0)"><g transform=""><g clip-path="url(#i13)"><polygon points="17.1704926,12.7583578 33.6989891,12.7583578 33.6989891,38.2750734 17.1704926,38.2750734 17.1704926,12.7583578" stroke="none" fill="#FFFFFF"></polygon></g></g></g><g transform="translate(28.923200571078485 19.3667263092021)"><g clip-path="url(#i13)"><polygon points="17.1704926,12.7583578 33.6989891,12.7583578 33.6989891,38.2750734 17.1704926,38.2750734 17.1704926,12.7583578" stroke="none" fill="#FFFFFF"></polygon></g></g><g transform="translate(62.17879242146795 20.787314295867283) rotate(72.0)"><g transform=""><g clip-path="url(#i69)"><polygon points="17.1704926,12.7583578 33.6989891,12.7583578 33.6989891,38.2750734 17.1704926,38.2750734 17.1704926,12.7583578" stroke="none" fill="#FFFFFF"></polygon></g></g></g><g transform="translate(71.12865421282476 52.82792588797713) rotate(144.0)"><g transform=""><g clip-path="url(#i26)"><polygon points="17.1704926,12.7583578 33.6989891,12.7583578 33.6989891,38.2750734 17.1704926,38.2750734 17.1704926,12.7583578" stroke="none" fill="#FFFFFF"></polygon></g></g></g></g><g transform="translate(320.4777345422121 9.521272659185342e-13)"><g transform="translate(43.404381144107184 71.20952488556945) rotate(-144.0)"><g transform=""><g clip-path="url(#i75)"><polygon points="17.1704926,12.7583578 33.6989891,12.7583578 33.6989891,38.2750734 17.1704926,38.2750734 17.1704926,12.7583578" stroke="none" fill="#FFFFFF"></polygon></g></g></g><g transform="translate(17.31997628290017 50.529366241542675) rotate(-72.0)"><g clip-path="url(#i71)"><polygon points="17.1704926,12.7583578 33.6989891,12.7583578 33.6989891,38.2750734 17.1704926,38.2750734 17.1704926,12.7583578" stroke="none" fill="#FFFFFF"></polygon></g></g><g transform="translate(28.92320057107872 19.366726309201816)"><g clip-path="url(#i25)"><polygon points="17.1704926,12.7583578 33.6989891,12.7583578 33.6989891,38.2750734 17.1704926,38.2750734 17.1704926,12.7583578" stroke="none" fill="#FFFFFF"></polygon></g></g><g transform="translate(62.17879242146863 20.787314295867382) rotate(72.0)"><g transform=""><g clip-path="url(#i76)"><polygon points="17.1704926,12.7583578 33.6989891,12.7583578 33.6989891,38.2750734 17.1704926,38.2750734 17.1704926,12.7583578" stroke="none" fill="#FFFFFF"></polygon></g></g></g><g transform="translate(71.12865421282473 52.82792588797738) rotate(144.0)"><g transform=""><g clip-path="url(#i77)"><polygon points="17.1704926,12.7583578 33.6989891,12.7583578 33.6989891,38.2750734 17.1704926,38.2750734 17.1704926,12.7583578" stroke="none" fill="#FFFFFF"></polygon></g></g></g></g><g transform="translate(32.04777345421553 27.558052848489098)"><g transform=""><g transform="translate(43.40438114410744 71.20952488556946) rotate(-144.0)"><g clip-path="url(#i29)"><polygon points="17.1704926,12.7583578 33.6989891,12.7583578 33.6989891,38.2750734 17.1704926,38.2750734 17.1704926,12.7583578" stroke="none" fill="#FFFFFF"></polygon></g></g><g transform="translate(17.3199762829004 50.529366241542675) rotate(-72.0)"><g clip-path="url(#i71)"><polygon points="17.1704926,12.7583578 33.6989891,12.7583578 33.6989891,38.2750734 17.1704926,38.2750734 17.1704926,12.7583578" stroke="none" fill="#FFFFFF"></polygon></g></g><g transform="translate(28.92320057107872 19.36672630920221)"><g clip-path="url(#i6)"><polygon points="17.1704926,12.7583578 33.6989891,12.7583578 33.6989891,38.2750734 17.1704926,38.2750734 17.1704926,12.7583578" stroke="none" fill="#FFFFFF"></polygon></g></g><g transform="translate(62.178792421468174 20.787314295868576) rotate(72.0)"><g transform=""><g clip-path="url(#i26)"><polygon points="17.1704926,12.7583578 33.6989891,12.7583578 33.6989891,38.2750734 17.1704926,38.2750734 17.1704926,12.7583578" stroke="none" fill="#FFFFFF"></polygon></g></g></g><g transform="translate(71.12865421282476 52.82792588797747) rotate(144.0)"><g transform=""><g clip-path="url(#i26)"><polygon points="17.1704926,12.7583578 33.6989891,12.7583578 33.6989891,38.2750734 17.1704926,38.2750734 17.1704926,12.7583578" stroke="none" fill="#FFFFFF"></polygon></g></g></g></g><g transform="translate(64.0955469084306 5.115907697472721e-13)"><g transform="translate(43.40438114410742 71.20952488556944) rotate(-144.0)"><g transform=""><g clip-path="url(#i49)"><polygon points="17.1704926,12.7583578 33.6989891,12.7583578 33.6989891,38.2750734 17.1704926,38.2750734 17.1704926,12.7583578" stroke="none" fill="#FFFFFF"></polygon></g></g></g><g transform="translate(17.3199762829004 50.52936624154381) rotate(-72.0)"><g transform=""><g clip-path="url(#i27)"><polygon points="17.1704926,12.7583578 33.6989891,12.7583578 33.6989891,38.2750734 17.1704926,38.2750734 17.1704926,12.7583578" stroke="none" fill="#FFFFFF"></polygon></g></g></g><g transform="translate(28.92320057107895 19.3667263092021)"><g clip-path="url(#i30)"><polygon points="17.1704926,12.7583578 33.6989891,12.7583578 33.6989891,38.2750734 17.1704926,38.2750734 17.1704926,12.7583578" stroke="none" fill="#FFFFFF"></polygon></g></g><g transform="translate(62.178792421468174 20.78731429586807) rotate(72.0)"><g transform=""><g clip-path="url(#i61)"><polygon points="17.1704926,12.7583578 33.6989891,12.7583578 33.6989891,38.2750734 17.1704926,38.2750734 17.1704926,12.7583578" stroke="none" fill="#FFFFFF"></polygon></g></g></g><g transform="translate(71.12865421282476 52.82792588797712) rotate(144.0)"><g clip-path="url(#i6)"><polygon points="17.1704926,12.7583578 33.6989891,12.7583578 33.6989891,38.2750734 17.1704926,38.2750734 17.1704926,12.7583578" stroke="none" fill="#FFFFFF"></polygon></g></g></g><g transform="translate(128.1910938168612 0.0)"><g transform="translate(43.40438114410781 71.2095248855694) rotate(-144.0)"><g transform=""><g clip-path="url(#i20)"><polygon points="17.1704926,12.7583578 33.6989891,12.7583578 33.6989891,38.2750734 17.1704926,38.2750734 17.1704926,12.7583578" stroke="none" fill="#FFFFFF"></polygon></g></g></g><g transform="translate(17.319976282900143 50.52936624154442) rotate(-72.0)"><g transform=""><g clip-path="url(#i77)"><polygon points="17.1704926,12.7583578 33.6989891,12.7583578 33.6989891,38.2750734 17.1704926,38.2750734 17.1704926,12.7583578" stroke="none" fill="#FFFFFF"></polygon></g></g></g><g transform="translate(28.923200571078944 19.366726309202615)"><g clip-path="url(#i78)"><polygon points="17.1704926,12.7583578 33.6989891,12.7583578 33.6989891,38.2750734 17.1704926,38.2750734 17.1704926,12.7583578" stroke="none" fill="#FFFFFF"></polygon></g></g><g transform="translate(62.17879242146861 20.78731429586781) rotate(72.0)"><g clip-path="url(#i79)"><polygon points="17.1704926,12.7583578 33.6989891,12.7583578 33.6989891,38.2750734 17.1704926,38.2750734 17.1704926,12.7583578" stroke="none" fill="#FFFFFF"></polygon></g></g><g transform="translate(71.1286542128247 52.82792588797726) rotate(144.0)"><g transform=""><g clip-path="url(#i80)"><polygon points="17.1704926,12.7583578 33.6989891,12.7583578 33.6989891,38.2750734 17.1704926,38.2750734 17.1704926,12.7583578" stroke="none" fill="#FFFFFF"></polygon></g></g></g></g><g transform="translate(192.2866407252923 7.389644451905042e-13)"><g transform="translate(43.40438114410745 71.20952488556942) rotate(-144.0)"><g transform=""><g clip-path="url(#i81)"><polygon points="17.1704926,12.7583578 33.6989891,12.7583578 33.6989891,38.2750734 17.1704926,38.2750734 17.1704926,12.7583578" stroke="none" fill="#FFFFFF"></polygon></g></g></g><g transform="translate(17.319976282900406 50.529366241543585) rotate(-72.0)"><g transform=""><g clip-path="url(#i27)"><polygon points="17.1704926,12.7583578 33.6989891,12.7583578 33.6989891,38.2750734 17.1704926,38.2750734 17.1704926,12.7583578" stroke="none" fill="#FFFFFF"></polygon></g></g></g><g transform="translate(28.923200571078965 19.36672630920188)"><g clip-path="url(#i8)"><polygon points="17.1704926,12.7583578 33.6989891,12.7583578 33.6989891,38.2750734 17.1704926,38.2750734 17.1704926,12.7583578" stroke="none" fill="#FFFFFF"></polygon></g></g><g transform="translate(62.17879242146865 20.78731429586764) rotate(72.0)"><g transform=""><g clip-path="url(#i31)"><polygon points="17.1704926,12.7583578 33.6989891,12.7583578 33.6989891,38.2750734 17.1704926,38.2750734 17.1704926,12.7583578" stroke="none" fill="#FFFFFF"></polygon></g></g></g><g transform="translate(71.12865421282476 52.827925887976875) rotate(144.0)"><g clip-path="url(#i14)"><polygon points="17.1704926,12.7583578 33.6989891,12.7583578 33.6989891,38.2750734 17.1704926,38.2750734 17.1704926,12.7583578" stroke="none" fill="#FFFFFF"></polygon></g></g></g><g transform="translate(256.3821876337231 2.8421709430404007e-13)"><g transform="translate(43.40438114410747 71.20952488556952) rotate(-144.0)"><g transform=""><g clip-path="url(#i37)"><polygon points="17.1704926,12.7583578 33.6989891,12.7583578 33.6989891,38.2750734 17.1704926,38.2750734 17.1704926,12.7583578" stroke="none" fill="#FFFFFF"></polygon></g></g></g><g transform="translate(17.319976282900647 50.52936624154384) rotate(-72.0)"><g transform=""><g clip-path="url(#i65)"><polygon points="17.1704926,12.7583578 33.6989891,12.7583578 33.6989891,38.2750734 17.1704926,38.2750734 17.1704926,12.7583578" stroke="none" fill="#FFFFFF"></polygon></g></g></g><g transform="translate(28.923200571078944 19.36672630920233)"><g clip-path="url(#i65)"><polygon points="17.1704926,12.7583578 33.6989891,12.7583578 33.6989891,38.2750734 17.1704926,38.2750734 17.1704926,12.7583578" stroke="none" fill="#FFFFFF"></polygon></g></g><g transform="translate(62.178792421468614 20.787314295867468) rotate(72.0)"><g clip-path="url(#i30)"><polygon points="17.1704926,12.7583578 33.6989891,12.7583578 33.6989891,38.2750734 17.1704926,38.2750734 17.1704926,12.7583578" stroke="none" fill="#FFFFFF"></polygon></g></g><g transform="translate(71.12865421282481 52.82792588797717) rotate(144.0)"><g transform=""><g clip-path="url(#i82)"><polygon points="17.1704926,12.7583578 33.6989891,12.7583578 33.6989891,38.2750734 17.1704926,38.2750734 17.1704926,12.7583578" stroke="none" fill="#FFFFFF"></polygon></g></g></g></g></g><g transform="translate(0.0 55.116105697006944)"><g transform=""><g transform=""><g transform=""><g transform="translate(43.40438114410743 71.2095248855695) rotate(-144.0)"><g clip-path="url(#i83)"><polygon points="17.1704926,12.7583578 33.6989891,12.7583578 33.6989891,38.2750734 17.1704926,38.2750734 17.1704926,12.7583578" stroke="none" fill="#FFFFFF"></polygon></g></g><g transform="translate(17.31997628290017 50.52936624154369) rotate(-72.0)"><g transform=""><g clip-path="url(#i84)"><polygon points="17.1704926,12.7583578 33.6989891,12.7583578 33.6989891,38.2750734 17.1704926,38.2750734 17.1704926,12.7583578" stroke="none" fill="#FFFFFF"></polygon></g></g></g><g transform="translate(28.923200571078954 19.36672630920183)"><g clip-path="url(#i85)"><polygon points="17.1704926,12.7583578 33.6989891,12.7583578 33.6989891,38.2750734 17.1704926,38.2750734 17.1704926,12.7583578" stroke="none" fill="#FFFFFF"></polygon></g></g><g transform="translate(62.17879242146799 20.787314295867453) rotate(72.0)"><g transform=""><g clip-path="url(#i72)"><polygon points="17.1704926,12.7583578 33.6989891,12.7583578 33.6989891,38.2750734 17.1704926,38.2750734 17.1704926,12.7583578" stroke="none" fill="#FFFFFF"></polygon></g></g></g><g transform="translate(71.12865421282478 52.827925887976875) rotate(144.0)"><g clip-path="url(#i86)"><polygon points="17.1704926,12.7583578 33.6989891,12.7583578 33.6989891,38.2750734 17.1704926,38.2750734 17.1704926,12.7583578" stroke="none" fill="#FFFFFF"></polygon></g></g></g><g transform="translate(64.09554690843083 3.979039320256561e-13)"><g transform="translate(43.40438114410717 71.2095248855695) rotate(-144.0)"><g clip-path="url(#i87)"><polygon points="17.1704926,12.7583578 33.6989891,12.7583578 33.6989891,38.2750734 17.1704926,38.2750734 17.1704926,12.7583578" stroke="none" fill="#FFFFFF"></polygon></g></g><g transform="translate(17.319976282899688 50.529366241543585) rotate(-72.0)"><g transform=""><g clip-path="url(#i88)"><polygon points="17.1704926,12.7583578 33.6989891,12.7583578 33.6989891,38.2750734 17.1704926,38.2750734 17.1704926,12.7583578" stroke="none" fill="#FFFFFF"></polygon></g></g></g><g transform="translate(28.923200571078485 19.366726309201834)"><g clip-path="url(#i89)"><polygon points="17.1704926,12.7583578 33.6989891,12.7583578 33.6989891,38.2750734 17.1704926,38.2750734 17.1704926,12.7583578" stroke="none" fill="#FFFFFF"></polygon></g></g><g transform="translate(62.17879242146796 20.787314295867652) rotate(72.0)"><g transform=""><g clip-path="url(#i90)"><polygon points="17.1704926,12.7583578 33.6989891,12.7583578 33.6989891,38.2750734 17.1704926,38.2750734 17.1704926,12.7583578" stroke="none" fill="#FFFFFF"></polygon></g></g></g><g transform="translate(71.12865421282478 52.827925887977564) rotate(144.0)"><g transform=""><g clip-path="url(#i91)"><polygon points="17.1704926,12.7583578 33.6989891,12.7583578 33.6989891,38.2750734 17.1704926,38.2750734 17.1704926,12.7583578" stroke="none" fill="#FFFFFF"></polygon></g></g></g></g><g transform="translate(128.191093816861 0.0)"><g transform="translate(43.40438114410789 71.20952488556948) rotate(-144.0)"><g transform=""><g clip-path="url(#i92)"><polygon points="17.1704926,12.7583578 33.6989891,12.7583578 33.6989891,38.2750734 17.1704926,38.2750734 17.1704926,12.7583578" stroke="none" fill="#FFFFFF"></polygon></g></g></g><g transform="translate(17.31997628290062 50.52936624154363) rotate(-72.0)"><g transform=""><g clip-path="url(#i83)"><polygon points="17.1704926,12.7583578 33.6989891,12.7583578 33.6989891,38.2750734 17.1704926,38.2750734 17.1704926,12.7583578" stroke="none" fill="#FFFFFF"></polygon></g></g></g><g transform="translate(28.92320057107917 19.36672630920223)"><g clip-path="url(#i93)"><polygon points="17.1704926,12.7583578 33.6989891,12.7583578 33.6989891,38.2750734 17.1704926,38.2750734 17.1704926,12.7583578" stroke="none" fill="#FFFFFF"></polygon></g></g><g transform="translate(62.178792421468636 20.787314295867745) rotate(72.0)"><g transform=""><g clip-path="url(#i94)"><polygon points="17.1704926,12.7583578 33.6989891,12.7583578 33.6989891,38.2750734 17.1704926,38.2750734 17.1704926,12.7583578" stroke="none" fill="#FFFFFF"></polygon></g></g></g><g transform="translate(71.12865421282476 52.82792588797737) rotate(144.0)"><g transform=""><g clip-path="url(#i26)"><polygon points="17.1704926,12.7583578 33.6989891,12.7583578 33.6989891,38.2750734 17.1704926,38.2750734 17.1704926,12.7583578" stroke="none" fill="#FFFFFF"></polygon></g></g></g></g><g transform="translate(192.2866407252916 0.0)"><g transform="translate(43.40438114410809 71.20952488556946) rotate(-144.0)"><g clip-path="url(#i68)"><polygon points="17.1704926,12.7583578 33.6989891,12.7583578 33.6989891,38.2750734 17.1704926,38.2750734 17.1704926,12.7583578" stroke="none" fill="#FFFFFF"></polygon></g></g><g transform="translate(17.319976282901067 50.5293662415431) rotate(-72.0)"><g clip-path="url(#i94)"><polygon points="17.1704926,12.7583578 33.6989891,12.7583578 33.6989891,38.2750734 17.1704926,38.2750734 17.1704926,12.7583578" stroke="none" fill="#FFFFFF"></polygon></g></g><g transform="translate(28.923200571079633 19.366726309202235)"><g clip-path="url(#i95)"><polygon points="17.1704926,12.7583578 33.6989891,12.7583578 33.6989891,38.2750734 17.1704926,38.2750734 17.1704926,12.7583578" stroke="none" fill="#FFFFFF"></polygon></g></g><g transform="translate(62.17879242146931 20.787314295867404) rotate(72.0)"><g clip-path="url(#i68)"><polygon points="17.1704926,12.7583578 33.6989891,12.7583578 33.6989891,38.2750734 17.1704926,38.2750734 17.1704926,12.7583578" stroke="none" fill="#FFFFFF"></polygon></g></g><g transform="translate(71.12865421282503 52.82792588797685) rotate(144.0)"><g transform=""><g clip-path="url(#i84)"><polygon points="17.1704926,12.7583578 33.6989891,12.7583578 33.6989891,38.2750734 17.1704926,38.2750734 17.1704926,12.7583578" stroke="none" fill="#FFFFFF"></polygon></g></g></g></g><g transform="translate(256.3821876337229 7.389644451905042e-13)"><g transform="translate(43.404381144107205 71.2095248855695) rotate(-144.0)"><g transform=""><g clip-path="url(#i96)"><polygon points="17.1704926,12.7583578 33.6989891,12.7583578 33.6989891,38.2750734 17.1704926,38.2750734 17.1704926,12.7583578" stroke="none" fill="#FFFFFF"></polygon></g></g></g><g transform="translate(17.319976282900377 50.52936624154332) rotate(-72.0)"><g transform=""><g clip-path="url(#i97)"><polygon points="17.1704926,12.7583578 33.6989891,12.7583578 33.6989891,38.2750734 17.1704926,38.2750734 17.1704926,12.7583578" stroke="none" fill="#FFFFFF"></polygon></g></g></g><g transform="translate(28.92320057107895 19.3667263092016)"><g clip-path="url(#i98)"><polygon points="17.1704926,12.7583578 33.6989891,12.7583578 33.6989891,38.2750734 17.1704926,38.2750734 17.1704926,12.7583578" stroke="none" fill="#FFFFFF"></polygon></g></g><g transform="translate(62.17879242146867 20.787314295867546) rotate(72.0)"><g transform=""><g clip-path="url(#i99)"><polygon points="17.1704926,12.7583578 33.6989891,12.7583578 33.6989891,38.2750734 17.1704926,38.2750734 17.1704926,12.7583578" stroke="none" fill="#FFFFFF"></polygon></g></g></g><g transform="translate(71.12865421282477 52.827925887976654) rotate(144.0)"><g clip-path="url(#i87)"><polygon points="17.1704926,12.7583578 33.6989891,12.7583578 33.6989891,38.2750734 17.1704926,38.2750734 17.1704926,12.7583578" stroke="none" fill="#FFFFFF"></polygon></g></g></g></g><g transform="translate(320.4777345422117 0.0)"><g transform="translate(43.404381144107184 71.20952488556954) rotate(-144.0)"><g transform=""><g clip-path="url(#i68)"><polygon points="17.1704926,12.7583578 33.6989891,12.7583578 33.6989891,38.2750734 17.1704926,38.2750734 17.1704926,12.7583578" stroke="none" fill="#FFFFFF"></polygon></g></g></g><g transform="translate(17.319976282900157 50.529366241544274) rotate(-72.0)"><g transform=""><g clip-path="url(#i58)"><polygon points="17.1704926,12.7583578 33.6989891,12.7583578 33.6989891,38.2750734 17.1704926,38.2750734 17.1704926,12.7583578" stroke="none" fill="#FFFFFF"></polygon></g></g></g><g transform="translate(28.923200571078937 19.36672630920235)"><g clip-path="url(#i95)"><polygon points="17.1704926,12.7583578 33.6989891,12.7583578 33.6989891,38.2750734 17.1704926,38.2750734 17.1704926,12.7583578" stroke="none" fill="#FFFFFF"></polygon></g></g><g transform="translate(62.17879242146843 20.787314295867873) rotate(72.0)"><g transform=""><g clip-path="url(#i100)"><polygon points="17.1704926,12.7583578 33.6989891,12.7583578 33.6989891,38.2750734 17.1704926,38.2750734 17.1704926,12.7583578" stroke="none" fill="#FFFFFF"></polygon></g></g></g><g transform="translate(71.12865421282477 52.827925887976974) rotate(144.0)"><g transform=""><g clip-path="url(#i101)"><polygon points="17.1704926,12.7583578 33.6989891,12.7583578 33.6989891,38.2750734 17.1704926,38.2750734 17.1704926,12.7583578" stroke="none" fill="#FFFFFF"></polygon></g></g></g></g></g></g><g transform="translate(32.0477734542153 82.67415854549591)"><g transform="translate(43.40438114410815 71.20952488556941) rotate(-144.0)"><g transform=""><g clip-path="url(#i43)"><polygon points="17.1704926,12.7583578 33.6989891,12.7583578 33.6989891,38.2750734 17.1704926,38.2750734 17.1704926,12.7583578" stroke="none" fill="#FFFFFF"></polygon></g></g></g><g transform="translate(17.319976282899972 50.52936624154391) rotate(-72.0)"><g transform=""><g clip-path="url(#i47)"><polygon points="17.1704926,12.7583578 33.6989891,12.7583578 33.6989891,38.2750734 17.1704926,38.2750734 17.1704926,12.7583578" stroke="none" fill="#FFFFFF"></polygon></g></g></g><g transform="translate(28.923200571078947 19.36672630920234)"><g clip-path="url(#i11)"><polygon points="17.1704926,12.7583578 33.6989891,12.7583578 33.6989891,38.2750734 17.1704926,38.2750734 17.1704926,12.7583578" stroke="none" fill="#FFFFFF"></polygon></g></g><g transform="translate(62.1787924214686 20.787314295867994) rotate(72.0)"><g transform=""><g clip-path="url(#i102)"><polygon points="17.1704926,12.7583578 33.6989891,12.7583578 33.6989891,38.2750734 17.1704926,38.2750734 17.1704926,12.7583578" stroke="none" fill="#FFFFFF"></polygon></g></g></g><g transform="translate(71.12865421282476 52.8279258879773) rotate(144.0)"><g clip-path="url(#i11)"><polygon points="17.1704926,12.7583578 33.6989891,12.7583578 33.6989891,38.2750734 17.1704926,38.2750734 17.1704926,12.7583578" stroke="none" fill="#FFFFFF"></polygon></g></g><g transform="translate(64.09554690843083 5.684341886080801e-13)"><g transform="translate(43.40438114410766 71.20952488556946) rotate(-144.0)"><g transform=""><g clip-path="url(#i103)"><polygon points="17.1704926,12.7583578 33.6989891,12.7583578 33.6989891,38.2750734 17.1704926,38.2750734 17.1704926,12.7583578" stroke="none" fill="#FFFFFF"></polygon></g></g></g><g transform="translate(17.319976282900427 50.529366241542576) rotate(-72.0)"><g clip-path="url(#i104)"><polygon points="17.1704926,12.7583578 33.6989891,12.7583578 33.6989891,38.2750734 17.1704926,38.2750734 17.1704926,12.7583578" stroke="none" fill="#FFFFFF"></polygon></g></g><g transform="translate(28.92320057107895 19.366726309201766)"><g clip-path="url(#i105)"><polygon points="17.1704926,12.7583578 33.6989891,12.7583578 33.6989891,38.2750734 17.1704926,38.2750734 17.1704926,12.7583578" stroke="none" fill="#FFFFFF"></polygon></g></g><g transform="translate(62.17879242146858 20.787314295867603) rotate(72.0)"><g transform=""><g clip-path="url(#i106)"><polygon points="17.1704926,12.7583578 33.6989891,12.7583578 33.6989891,38.2750734 17.1704926,38.2750734 17.1704926,12.7583578" stroke="none" fill="#FFFFFF"></polygon></g></g></g><g transform="translate(71.12865421282473 52.82792588797674) rotate(144.0)"><g clip-path="url(#i16)"><polygon points="17.1704926,12.7583578 33.6989891,12.7583578 33.6989891,38.2750734 17.1704926,38.2750734 17.1704926,12.7583578" stroke="none" fill="#FFFFFF"></polygon></g></g></g><g transform="translate(128.19109381686172 2.2737367544323206e-13)"><g transform="translate(43.40438114410762 71.2095248855694) rotate(-144.0)"><g transform=""><g clip-path="url(#i107)"><polygon points="17.1704926,12.7583578 33.6989891,12.7583578 33.6989891,38.2750734 17.1704926,38.2750734 17.1704926,12.7583578" stroke="none" fill="#FFFFFF"></polygon></g></g></g><g transform="translate(17.319976282900413 50.52936624154252) rotate(-72.0)"><g clip-path="url(#i108)"><polygon points="17.1704926,12.7583578 33.6989891,12.7583578 33.6989891,38.2750734 17.1704926,38.2750734 17.1704926,12.7583578" stroke="none" fill="#FFFFFF"></polygon></g></g><g transform="translate(28.92320057107895 19.366726309202107)"><g clip-path="url(#i109)"><polygon points="17.1704926,12.7583578 33.6989891,12.7583578 33.6989891,38.2750734 17.1704926,38.2750734 17.1704926,12.7583578" stroke="none" fill="#FFFFFF"></polygon></g></g><g transform="translate(62.1787924214686 20.78731429586749) rotate(72.0)"><g transform=""><g clip-path="url(#i110)"><polygon points="17.1704926,12.7583578 33.6989891,12.7583578 33.6989891,38.2750734 17.1704926,38.2750734 17.1704926,12.7583578" stroke="none" fill="#FFFFFF"></polygon></g></g></g><g transform="translate(71.12865421282473 52.82792588797708) rotate(144.0)"><g transform=""><g clip-path="url(#i110)"><polygon points="17.1704926,12.7583578 33.6989891,12.7583578 33.6989891,38.2750734 17.1704926,38.2750734 17.1704926,12.7583578" stroke="none" fill="#FFFFFF"></polygon></g></g></g></g><g transform="translate(192.2866407252923 1.1368683772161603e-13)"><g transform="translate(43.404381144107425 71.20952488556938) rotate(-144.0)"><g clip-path="url(#i106)"><polygon points="17.1704926,12.7583578 33.6989891,12.7583578 33.6989891,38.2750734 17.1704926,38.2750734 17.1704926,12.7583578" stroke="none" fill="#FFFFFF"></polygon></g></g><g transform="translate(17.319976282900413 50.52936624154282) rotate(-72.0)"><g transform=""><g clip-path="url(#i106)"><polygon points="17.1704926,12.7583578 33.6989891,12.7583578 33.6989891,38.2750734 17.1704926,38.2750734 17.1704926,12.7583578" stroke="none" fill="#FFFFFF"></polygon></g></g></g><g transform="translate(28.92320057107894 19.36672630920222)"><g clip-path="url(#i110)"><polygon points="17.1704926,12.7583578 33.6989891,12.7583578 33.6989891,38.2750734 17.1704926,38.2750734 17.1704926,12.7583578" stroke="none" fill="#FFFFFF"></polygon></g></g><g transform="translate(62.17879242146837 20.787314295867922) rotate(72.0)"><g transform=""><g clip-path="url(#i42)"><polygon points="17.1704926,12.7583578 33.6989891,12.7583578 33.6989891,38.2750734 17.1704926,38.2750734 17.1704926,12.7583578" stroke="none" fill="#FFFFFF"></polygon></g></g></g><g transform="translate(71.12865421282474 52.82792588797718) rotate(144.0)"><g clip-path="url(#i11)"><polygon points="17.1704926,12.7583578 33.6989891,12.7583578 33.6989891,38.2750734 17.1704926,38.2750734 17.1704926,12.7583578" stroke="none" fill="#FFFFFF"></polygon></g></g></g><g transform="translate(256.3821876337231 1.1368683772161603e-13)"><g transform=""><g transform="translate(43.40438114410767 71.20952488556938) rotate(-144.0)"><g transform=""><g clip-path="url(#i55)"><polygon points="17.1704926,12.7583578 33.6989891,12.7583578 33.6989891,38.2750734 17.1704926,38.2750734 17.1704926,12.7583578" stroke="none" fill="#FFFFFF"></polygon></g></g></g><g transform="translate(17.31997628290044 50.529366241543045) rotate(-72.0)"><g clip-path="url(#i55)"><polygon points="17.1704926,12.7583578 33.6989891,12.7583578 33.6989891,38.2750734 17.1704926,38.2750734 17.1704926,12.7583578" stroke="none" fill="#FFFFFF"></polygon></g></g><g transform="translate(28.92320057107894 19.36672630920222)"><g clip-path="url(#i110)"><polygon points="17.1704926,12.7583578 33.6989891,12.7583578 33.6989891,38.2750734 17.1704926,38.2750734 17.1704926,12.7583578" stroke="none" fill="#FFFFFF"></polygon></g></g><g transform="translate(62.178792421468586 20.787314295867596) rotate(72.0)"><g transform=""><g clip-path="url(#i105)"><polygon points="17.1704926,12.7583578 33.6989891,12.7583578 33.6989891,38.2750734 17.1704926,38.2750734 17.1704926,12.7583578" stroke="none" fill="#FFFFFF"></polygon></g></g></g><g transform="translate(71.12865421282473 52.82792588797731) rotate(144.0)"><g transform=""><g clip-path="url(#i105)"><polygon points="17.1704926,12.7583578 33.6989891,12.7583578 33.6989891,38.2750734 17.1704926,38.2750734 17.1704926,12.7583578" stroke="none" fill="#FFFFFF"></polygon></g></g></g></g></g></g></g><g transform="translate(0.0 220.4644227880271)"><g transform=""><g transform="translate(43.40438114410788 71.20952488556945) rotate(-144.0)"><g transform=""><g clip-path="url(#i6)"><polygon points="17.1704926,12.7583578 33.6989891,12.7583578 33.6989891,38.2750734 17.1704926,38.2750734 17.1704926,12.7583578" stroke="none" fill="#FFFFFF"></polygon></g></g></g><g transform="translate(17.319976282900164 50.529366241543464) rotate(-72.0)"><g transform=""><g clip-path="url(#i61)"><polygon points="17.1704926,12.7583578 33.6989891,12.7583578 33.6989891,38.2750734 17.1704926,38.2750734 17.1704926,12.7583578" stroke="none" fill="#FFFFFF"></polygon></g></g></g><g transform="translate(28.92320057107917 19.3667263092017)"><g clip-path="url(#i111)"><polygon points="17.1704926,12.7583578 33.6989891,12.7583578 33.6989891,38.2750734 17.1704926,38.2750734 17.1704926,12.7583578" stroke="none" fill="#FFFFFF"></polygon></g></g><g transform="translate(62.178792421468394 20.78731429586795) rotate(72.0)"><g transform=""><g clip-path="url(#i6)"><polygon points="17.1704926,12.7583578 33.6989891,12.7583578 33.6989891,38.2750734 17.1704926,38.2750734 17.1704926,12.7583578" stroke="none" fill="#FFFFFF"></polygon></g></g></g><g transform="translate(71.12865421282498 52.82792588797678) rotate(144.0)"><g transform=""><g clip-path="url(#i6)"><polygon points="17.1704926,12.7583578 33.6989891,12.7583578 33.6989891,38.2750734 17.1704926,38.2750734 17.1704926,12.7583578" stroke="none" fill="#FFFFFF"></polygon></g></g></g></g><g transform="translate(64.0955469084308 5.115907697472721e-13)"><g transform="translate(43.404381144107425 71.20952488556944) rotate(-144.0)"><g transform=""><g clip-path="url(#i35)"><polygon points="17.1704926,12.7583578 33.6989891,12.7583578 33.6989891,38.2750734 17.1704926,38.2750734 17.1704926,12.7583578" stroke="none" fill="#FFFFFF"></polygon></g></g></g><g transform="translate(17.319976282900846 50.52936624154348) rotate(-72.0)"><g transform=""><g clip-path="url(#i68)"><polygon points="17.1704926,12.7583578 33.6989891,12.7583578 33.6989891,38.2750734 17.1704926,38.2750734 17.1704926,12.7583578" stroke="none" fill="#FFFFFF"></polygon></g></g></g><g transform="translate(28.923200571079402 19.366726309201365)"><g clip-path="url(#i6)"><polygon points="17.1704926,12.7583578 33.6989891,12.7583578 33.6989891,38.2750734 17.1704926,38.2750734 17.1704926,12.7583578" stroke="none" fill="#FFFFFF"></polygon></g></g><g transform="translate(62.17879242146908 20.78731429586699) rotate(72.0)"><g clip-path="url(#i26)"><polygon points="17.1704926,12.7583578 33.6989891,12.7583578 33.6989891,38.2750734 17.1704926,38.2750734 17.1704926,12.7583578" stroke="none" fill="#FFFFFF"></polygon></g></g><g transform="translate(71.12865421282498 52.82792588797624) rotate(144.0)"><g transform=""><g clip-path="url(#i112)"><polygon points="17.1704926,12.7583578 33.6989891,12.7583578 33.6989891,38.2750734 17.1704926,38.2750734 17.1704926,12.7583578" stroke="none" fill="#FFFFFF"></polygon></g></g></g></g><g transform="translate(128.1910938168619 2.2737367544323206e-13)"><g transform="translate(43.40438114410764 71.20952488556945) rotate(-144.0)"><g transform=""><g clip-path="url(#i61)"><polygon points="17.1704926,12.7583578 33.6989891,12.7583578 33.6989891,38.2750734 17.1704926,38.2750734 17.1704926,12.7583578" stroke="none" fill="#FFFFFF"></polygon></g></g></g><g transform="translate(17.319976282900626 50.52936624154347) rotate(-72.0)"><g transform=""><g clip-path="url(#i13)"><polygon points="17.1704926,12.7583578 33.6989891,12.7583578 33.6989891,38.2750734 17.1704926,38.2750734 17.1704926,12.7583578" stroke="none" fill="#FFFFFF"></polygon></g></g></g><g transform="translate(28.923200571079175 19.366726309201646)"><g clip-path="url(#i14)"><polygon points="17.1704926,12.7583578 33.6989891,12.7583578 33.6989891,38.2750734 17.1704926,38.2750734 17.1704926,12.7583578" stroke="none" fill="#FFFFFF"></polygon></g></g><g transform="translate(62.178792421468614 20.78731429586783) rotate(72.0)"><g transform=""><g clip-path="url(#i61)"><polygon points="17.1704926,12.7583578 33.6989891,12.7583578 33.6989891,38.2750734 17.1704926,38.2750734 17.1704926,12.7583578" stroke="none" fill="#FFFFFF"></polygon></g></g></g><g transform="translate(71.12865421282498 52.82792588797707) rotate(144.0)"><g transform=""><g clip-path="url(#i61)"><polygon points="17.1704926,12.7583578 33.6989891,12.7583578 33.6989891,38.2750734 17.1704926,38.2750734 17.1704926,12.7583578" stroke="none" fill="#FFFFFF"></polygon></g></g></g></g><g transform="translate(192.2866407252929 0.0)"><g transform="translate(43.40438114410769 71.20952488556944) rotate(-144.0)"><g transform=""><g clip-path="url(#i30)"><polygon points="17.1704926,12.7583578 33.6989891,12.7583578 33.6989891,38.2750734 17.1704926,38.2750734 17.1704926,12.7583578" stroke="none" fill="#FFFFFF"></polygon></g></g></g><g transform="translate(17.319976282900413 50.52936624154364) rotate(-72.0)"><g transform=""><g clip-path="url(#i14)"><polygon points="17.1704926,12.7583578 33.6989891,12.7583578 33.6989891,38.2750734 17.1704926,38.2750734 17.1704926,12.7583578" stroke="none" fill="#FFFFFF"></polygon></g></g></g><g transform="translate(28.92320057107894 19.36672630920187)"><g clip-path="url(#i6)"><polygon points="17.1704926,12.7583578 33.6989891,12.7583578 33.6989891,38.2750734 17.1704926,38.2750734 17.1704926,12.7583578" stroke="none" fill="#FFFFFF"></polygon></g></g><g transform="translate(62.17879242146863 20.787314295868455) rotate(72.0)"><g transform=""><g clip-path="url(#i8)"><polygon points="17.1704926,12.7583578 33.6989891,12.7583578 33.6989891,38.2750734 17.1704926,38.2750734 17.1704926,12.7583578" stroke="none" fill="#FFFFFF"></polygon></g></g></g><g transform="translate(71.12865421282476 52.827925887977294) rotate(144.0)"><g clip-path="url(#i71)"><polygon points="17.1704926,12.7583578 33.6989891,12.7583578 33.6989891,38.2750734 17.1704926,38.2750734 17.1704926,12.7583578" stroke="none" fill="#FFFFFF"></polygon></g></g></g><g transform="translate(256.3821876337237 1.4210854715202004e-13)"><g transform="translate(43.40438114410745 71.20952488556945) rotate(-144.0)"><g transform=""><g clip-path="url(#i60)"><polygon points="17.1704926,12.7583578 33.6989891,12.7583578 33.6989891,38.2750734 17.1704926,38.2750734 17.1704926,12.7583578" stroke="none" fill="#FFFFFF"></polygon></g></g></g><g transform="translate(17.319976282899972 50.52936624154373) rotate(-72.0)"><g transform=""><g clip-path="url(#i113)"><polygon points="17.1704926,12.7583578 33.6989891,12.7583578 33.6989891,38.2750734 17.1704926,38.2750734 17.1704926,12.7583578" stroke="none" fill="#FFFFFF"></polygon></g></g></g><g transform="translate(28.923200571078716 19.36672630920171)"><g clip-path="url(#i114)"><polygon points="17.1704926,12.7583578 33.6989891,12.7583578 33.6989891,38.2750734 17.1704926,38.2750734 17.1704926,12.7583578" stroke="none" fill="#FFFFFF"></polygon></g></g><g transform="translate(62.17879242146796 20.787314295867922) rotate(72.0)"><g transform=""><g clip-path="url(#i115)"><polygon points="17.1704926,12.7583578 33.6989891,12.7583578 33.6989891,38.2750734 17.1704926,38.2750734 17.1704926,12.7583578" stroke="none" fill="#FFFFFF"></polygon></g></g></g><g transform="translate(71.12865421282478 52.82792588797715) rotate(144.0)"><g transform=""><g clip-path="url(#i116)"><polygon points="17.1704926,12.7583578 33.6989891,12.7583578 33.6989891,38.2750734 17.1704926,38.2750734 17.1704926,12.7583578" stroke="none" fill="#FFFFFF"></polygon></g></g></g></g><g transform="translate(320.4777345422124 4.547473508864641e-13)"><g transform="translate(43.40438114410744 71.20952488556941) rotate(-144.0)"><g transform=""><g clip-path="url(#i33)"><polygon points="17.1704926,12.7583578 33.6989891,12.7583578 33.6989891,38.2750734 17.1704926,38.2750734 17.1704926,12.7583578" stroke="none" fill="#FFFFFF"></polygon></g></g></g><g transform="translate(17.319976282900868 50.52936624154411) rotate(-72.0)"><g transform=""><g clip-path="url(#i28)"><polygon points="17.1704926,12.7583578 33.6989891,12.7583578 33.6989891,38.2750734 17.1704926,38.2750734 17.1704926,12.7583578" stroke="none" fill="#FFFFFF"></polygon></g></g></g><g transform="translate(28.92320057107919 19.366726309201933)"><g clip-path="url(#i61)"><polygon points="17.1704926,12.7583578 33.6989891,12.7583578 33.6989891,38.2750734 17.1704926,38.2750734 17.1704926,12.7583578" stroke="none" fill="#FFFFFF"></polygon></g></g><g transform="translate(62.17879242146863 20.787314295867652) rotate(72.0)"><g transform=""><g clip-path="url(#i30)"><polygon points="17.1704926,12.7583578 33.6989891,12.7583578 33.6989891,38.2750734 17.1704926,38.2750734 17.1704926,12.7583578" stroke="none" fill="#FFFFFF"></polygon></g></g></g><g transform="translate(71.12865421282474 52.82792588797651) rotate(144.0)"><g transform=""><g clip-path="url(#i13)"><polygon points="17.1704926,12.7583578 33.6989891,12.7583578 33.6989891,38.2750734 17.1704926,38.2750734 17.1704926,12.7583578" stroke="none" fill="#FFFFFF"></polygon></g></g></g></g></g></g><g transform="translate(309.56892055917024 136.81176193080225)"><path d="M186.103755,0 L153.597742,60.7181872 C149.909242,67.3172435 143.300567,66.7051688 136.691883,63.0193889 L113.158395,50.8151318 L130.698269,144.076993 C134.386768,161.115407 122.552412,161.115407 116.712099,153.748294 L75.6415873,107.70194 L68.9738617,131.085374 C68.2049566,134.156121 64.8242116,137.38137 59.7522985,136.613314 L7.81816747,125.677772 L21.4590006,175.344546 C24.3791381,186.395959 26.6569142,190.971623 18.5110006,193.886379 L0,202.599458 L89.4012457,275.325802 C92.9397986,278.075653 94.7276183,283.024212 93.4678706,287.504789 L85.6433569,313.22062 C116.425527,309.66705 144.006829,304.320792 174.804589,301.028187 C177.5234,300.737514 182.075017,305.23104 182.05635,308.386463 L177.977757,402.599112 L192.944201,402.599112 L190.588307,308.588509 C190.569535,305.433086 194.698803,300.737514 197.417614,301.028187 C228.215374,304.320801 255.796714,309.66705 286.578875,313.22062 L278.75438,287.504789 C277.494633,283.024212 279.282443,278.075653 282.820996,275.325802 L372.222222,202.599458 L353.711241,193.886379 C345.565308,190.971623 347.843084,186.395959 350.763222,175.344546 L364.404083,125.677772 L312.469924,136.613314 C307.398011,137.38137 304.017266,134.156121 303.248341,131.085374 L296.580625,107.70194 L255.510133,153.748294 C249.669801,161.115407 237.835435,161.115407 241.523935,144.076993 L259.063779,50.8151318 L235.53034,63.0193889 C228.921493,66.7051688 222.31298,67.3172435 218.624471,60.7181872" stroke="none" fill="#000000" filter="url(#i117)"></path><g clip-path="url(#i120)"><polygon points="0,0 372.222222,0 372.222222,402.599112 0,402.599112 0,0" stroke="none" fill="#FF0000"></polygon></g></g></g></g></svg>