<svg xmlns="http://www.w3.org/2000/svg" version="1.1" xmlns:xlink="http://www.w3.org/1999/xlink" xmlns:svgjs="http://svgjs.dev/svgjs" width="1000" height="623" viewBox="0 0 1000 623"><g transform="matrix(1,0,0,1,-0.6060606060606233,0.2522267206477409)"><svg viewBox="0 0 396 247" data-background-color="#ffffff" preserveAspectRatio="xMidYMid meet" height="623" width="1000" xmlns="http://www.w3.org/2000/svg" xmlns:xlink="http://www.w3.org/1999/xlink"><g id="tight-bounds" transform="matrix(1,0,0,1,0.2400000000000091,-0.09999999999999432)"><svg viewBox="0 0 395.52 247.2" height="247.2" width="395.52"><g><svg></svg></g><g><svg viewBox="0 0 395.52 247.2" height="247.2" width="395.52"><g><path xmlns="http://www.w3.org/2000/svg" d="M55.039 247.2l26.403-45.732h7.584l-22.403 38.804h262.274l-22.403-38.804 7.584 0 26.403 45.732zM197.76 0l26.403 45.732-7.583 0-18.82-32.596-18.82 32.596-7.583 0z" fill="#673ab7" fill-rule="nonzero" stroke="none" stroke-width="1" stroke-linecap="butt" stroke-linejoin="miter" stroke-miterlimit="10" stroke-dasharray="" stroke-dashoffset="0" font-family="none" font-weight="none" font-size="none" text-anchor="none" style="mix-blend-mode: normal" data-fill-palette-color="tertiary"></path></g><g transform="matrix(1,0,0,1,99.55851632047478,67.97999999999999)"><svg viewBox="0 0 196.40296735905042 111.24" height="111.24" width="196.40296735905042"><g><svg viewBox="0 0 196.40296735905042 111.24" height="111.24" width="196.40296735905042"><g><svg viewBox="0 0 196.40296735905042 111.24" height="111.24" width="196.40296735905042"><g><svg viewBox="0 0 196.40296735905042 111.24" height="111.24" width="196.40296735905042"><g><svg viewBox="0 0 196.40296735905042 111.24" height="111.24" width="196.40296735905042"><g><svg viewBox="0 0 196.40296735905042 111.24" height="111.24" width="196.40296735905042"><g transform="matrix(1,0,0,1,0,0)"><svg width="196.40296735905042" viewBox="2 -33.70000076293945 59.5 33.70000076293945" height="111.24" data-palette-color="#ec407a"><path d="M29.55-33.7L17.7 0 13.45 0 2-33.7 5.35-33.7 9.8-20.35 15.6-2.75 21.6-20.35 26.2-33.7 29.55-33.7ZM41.75-14.2L41.75-14.2 41-12.1 54.05-12.1 53.3-14.25 47.6-31.1Q46.95-29.1 41.75-14.2ZM40.05-9.35L36.8 0 33.45 0 45.35-33.7 49.85-33.7 61.5 0 58.15 0 54.95-9.35 40.05-9.35Z" opacity="1" transform="matrix(1,0,0,1,0,0)" fill="#ec407a" class="undefined-text-0" data-fill-palette-color="primary" id="text-0"></path></svg></g></svg></g></svg></g></svg></g></svg></g></svg></g></svg></g></svg></g><defs></defs></svg><rect width="395.52" height="247.2" fill="none" stroke="none" visibility="hidden"></rect></g></svg></g></svg>