<?xml version="1.0" standalone="no"?>
<!DOCTYPE svg PUBLIC "-//W3C//DTD SVG 20010904//EN"
 "http://www.w3.org/TR/2001/REC-SVG-20010904/DTD/svg10.dtd">
<svg version="1.0" xmlns="http://www.w3.org/2000/svg"
 width="1000.000000pt" height="1000.000000pt" viewBox="0 0 1000.000000 1000.000000"
 preserveAspectRatio="xMidYMid meet">
<metadata>
Created by potrace 1.14, written by Peter Selinger 2001-2017
</metadata>
<g transform="translate(0.000000,1000.000000) scale(0.100000,-0.100000)"
fill="#000000" stroke="none">
<path d="M4980 8087 c-7 -12 -27 -47 -43 -77 -16 -30 -36 -62 -43 -71 -8 -8
-14 -18 -14 -21 0 -3 -30 -57 -66 -119 -37 -63 -77 -132 -89 -154 -13 -22 -80
-139 -150 -260 -70 -121 -141 -245 -158 -275 -17 -30 -33 -57 -36 -60 -7 -6
-43 -75 -45 -86 0 -5 37 -8 83 -9 62 0 90 4 102 15 17 15 279 466 279 480 0 5
3 10 8 12 7 3 14 14 115 195 34 62 66 111 71 110 4 -2 20 -23 34 -47 14 -25
33 -58 43 -75 10 -16 32 -55 49 -85 17 -30 39 -68 49 -85 10 -16 29 -50 43
-75 14 -25 39 -68 56 -96 18 -28 32 -56 32 -63 0 -6 5 -11 10 -11 6 0 10 -5
10 -10 0 -9 69 -132 119 -210 8 -14 16 -29 16 -33 0 -17 28 -22 112 -21 48 1
89 3 91 3 1 1 -8 18 -21 39 -13 20 -26 44 -30 52 -4 8 -18 33 -31 55 -14 22
-47 78 -74 125 -27 47 -58 101 -69 120 -137 237 -173 301 -173 309 0 5 -4 11
-8 13 -5 2 -30 41 -56 88 -84 148 -98 172 -150 261 -50 85 -52 87 -66 66z"/>
<path d="M2518 6385 c4 -5 7 -12 8 -15 0 -3 3 -12 7 -20 9 -23 158 -463 162
-480 2 -8 45 -134 95 -280 51 -146 93 -269 94 -275 2 -5 6 -17 9 -25 5 -14 30
-89 32 -100 1 -3 5 -12 8 -20 7 -16 137 -398 141 -415 2 -5 6 -17 9 -25 3 -8
22 -62 41 -120 33 -98 285 -841 301 -885 4 -11 11 -32 16 -47 5 -16 14 -41 20
-58 l11 -30 178 0 177 0 13 43 c8 23 14 44 15 47 1 3 5 12 8 20 9 21 117 329
128 364 5 16 20 59 33 95 14 36 41 113 61 171 20 58 49 141 65 185 15 44 47
134 69 200 23 66 48 136 56 155 7 19 35 96 60 170 26 74 69 198 97 275 27 77
51 145 52 150 2 6 6 17 9 25 10 25 79 223 88 250 4 14 26 77 49 140 23 63 43
120 44 125 2 6 6 17 9 25 3 8 15 43 27 78 11 34 27 79 34 100 15 38 22 62 25
74 1 4 11 29 22 54 11 26 17 49 14 53 -3 3 -66 6 -140 6 l-133 1 -27 -76 c-14
-41 -27 -79 -29 -85 -2 -5 -6 -18 -9 -27 -8 -21 -14 -40 -16 -50 -1 -5 -7 -25
-15 -45 -17 -45 -27 -76 -28 -83 0 -3 -5 -16 -10 -30 -18 -46 -139 -394 -155
-445 -8 -27 -18 -54 -21 -60 -4 -5 -7 -14 -8 -20 -2 -5 -25 -75 -52 -155 -168
-486 -401 -1172 -430 -1260 -7 -25 -16 -52 -20 -60 -3 -8 -17 -51 -32 -94 -15
-44 -30 -74 -34 -68 -6 10 -271 805 -281 842 -2 8 -36 112 -75 230 -39 118
-73 222 -75 230 -2 8 -98 294 -212 635 l-208 620 -142 0 c-95 1 -139 -3 -135
-10z"/>
<path d="M6111 6360 c-6 -19 -13 -42 -15 -50 -2 -8 -27 -78 -55 -155 -54 -151
-320 -903 -325 -920 -2 -5 -6 -17 -9 -25 -8 -21 -52 -147 -137 -390 -39 -113
-76 -214 -81 -225 -6 -12 -11 -27 -13 -35 -3 -15 -6 -23 -29 -85 -6 -16 -12
-34 -13 -40 -1 -5 -11 -35 -22 -65 -12 -30 -48 -131 -81 -225 -32 -93 -65
-183 -72 -200 -6 -16 -14 -37 -15 -45 -2 -8 -26 -78 -54 -155 -27 -77 -50
-143 -50 -147 0 -5 62 -8 138 -8 l138 0 28 88 c16 48 32 92 35 97 3 6 6 15 7
20 2 6 33 96 69 200 37 105 81 231 98 280 l32 90 619 0 620 0 21 -55 c12 -30
22 -57 23 -60 3 -13 45 -139 60 -180 3 -8 6 -19 8 -25 4 -15 56 -167 65 -190
11 -29 89 -257 89 -261 0 -2 63 -4 141 -4 130 0 141 1 134 18 -4 9 -17 49 -30
87 -30 90 -104 305 -112 325 -3 8 -7 20 -9 25 -1 6 -32 96 -69 200 -36 105
-82 237 -101 295 -20 58 -39 114 -44 125 -5 11 -23 63 -40 115 -17 52 -35 104
-40 115 -5 11 -20 54 -34 95 -13 41 -59 174 -101 295 -77 223 -126 363 -253
735 -39 113 -80 229 -91 258 -11 28 -19 52 -16 52 3 0 -4 15 -14 33 l-18 32
-185 0 -185 0 -12 -35z m294 -450 c48 -140 88 -259 89 -265 2 -5 6 -17 9 -25
7 -18 68 -201 71 -215 2 -5 6 -17 9 -25 4 -8 34 -98 68 -200 33 -102 63 -192
66 -200 3 -8 7 -19 9 -25 1 -5 12 -35 24 -65 12 -30 23 -64 25 -75 7 -29 55
-167 67 -188 5 -11 7 -21 4 -25 -9 -8 -1067 -8 -1072 0 -4 7 19 84 51 166 7
20 35 98 60 172 49 142 113 325 122 350 4 8 7 20 9 25 5 20 27 81 46 129 11
27 21 57 23 68 2 10 18 56 34 101 17 45 37 105 46 132 9 28 20 59 25 70 5 11
18 49 30 85 11 36 24 72 27 80 3 8 7 20 8 25 2 6 15 43 29 84 14 41 26 77 26
79 0 17 17 -29 95 -258z"/>
<path d="M2039 2992 c-13 -20 -29 -48 -36 -62 -7 -14 -21 -38 -31 -55 -10 -16
-30 -50 -44 -75 -14 -25 -49 -85 -78 -135 -29 -49 -66 -115 -83 -145 -16 -30
-38 -66 -47 -80 -14 -22 -42 -69 -118 -205 -9 -16 -32 -53 -49 -83 -18 -29
-33 -55 -33 -58 0 -3 -16 -30 -35 -60 -19 -30 -35 -58 -35 -62 0 -4 -12 -25
-26 -45 -14 -21 -24 -40 -22 -43 3 -2 1621 -3 3597 -2 l3592 3 -24 37 c-14 20
-23 39 -19 42 3 3 0 6 -6 6 -7 0 -12 4 -12 10 0 5 -22 47 -49 92 -27 46 -59
101 -72 123 -63 111 -82 142 -98 170 -10 17 -28 48 -41 70 -12 22 -64 112
-115 200 -51 88 -103 178 -115 200 -55 99 -74 131 -88 148 -8 9 -12 17 -8 17
4 0 1 7 -8 15 -11 11 -37 15 -100 15 -47 0 -87 -4 -90 -9 -3 -5 2 -19 12 -32
9 -13 22 -33 28 -44 28 -52 69 -123 153 -268 50 -86 91 -162 91 -167 0 -6 4
-10 9 -10 5 0 11 -8 14 -17 4 -10 17 -36 30 -58 13 -22 66 -112 117 -200 51
-88 94 -163 97 -167 2 -5 -1483 -8 -3302 -8 l-3305 0 28 53 c16 28 55 97 87
152 55 95 68 118 115 201 11 19 27 45 34 57 29 44 77 132 83 150 3 9 9 17 14
17 5 0 9 5 9 10 0 6 18 40 40 76 22 36 40 68 40 70 0 3 11 21 23 42 13 20 38
63 56 94 l31 57 -94 0 -95 0 -22 -37z"/>
</g>
</svg>
